<svg height="414pt" viewBox="0 -11 414.00226 414" width="414pt" xmlns="http://www.w3.org/2000/svg"><path d="m163.011719 391.601562c-21.800781 0-39.472657-17.671874-39.472657-39.472656 0-21.796875 17.671876-39.46875 39.472657-39.46875 21.796875 0 39.46875 17.671875 39.46875 39.46875-.023438 21.789063-17.679688 39.449219-39.46875 39.472656zm0-64.941406c-14.070313 0-25.472657 11.402344-25.472657 25.472656 0 14.066407 11.402344 25.46875 25.472657 25.46875 14.066406 0 25.46875-11.402343 25.46875-25.472656-.015625-14.058594-11.410157-25.453125-25.46875-25.46875zm0 0" fill="#1ae5be"/><path d="m309.167969 391.601562c-21.800781 0-39.472657-17.671874-39.472657-39.46875 0-21.800781 17.671876-39.472656 39.46875-39.472656 21.800782 0 39.472657 17.671875 39.472657 39.46875-.023438 21.789063-17.679688 39.449219-39.46875 39.472656zm0-64.941406c-14.070313 0-25.472657 11.402344-25.472657 25.472656 0 14.066407 11.402344 25.46875 25.472657 25.46875 14.066406 0 25.46875-11.402343 25.46875-25.472656-.015625-14.058594-11.410157-25.449218-25.46875-25.46875zm0 0" fill="#1ae5be"/><path d="m7 14h42.699219c14.050781-.054688 26.03125 10.175781 28.171875 24.066406l33.800781 213.511719c3.191406 20.703125 21.050781 35.957031 42 35.875h208.929687c3.863282 0 7-3.136719 7-7 0-3.867187-3.136718-7-7-7h-208.929687c-14.050781.054687-26.03125-10.179687-28.171875-24.066406l-5.746094-36.300781h213.980469c18.117187-.007813 34.242187-11.484376 40.179687-28.597657l39.699219-114.578125c.746094-2.140625.40625-4.507812-.90625-6.355468-1.316406-1.84375-3.441406-2.941407-5.707031-2.941407h-311.386719l-3.914062-24.738281c-3.191407-20.703125-21.050781-35.9570312-42-35.875h-42.699219c-3.867188 0-7 3.136719-7 7 0 3.867188 3.132812 7 7 7zm390.164062 60.617188-36.476562 105.285156c-3.984375 11.480468-14.800781 19.179687-26.953125 19.183594h-216.199219l-19.707031-124.472657zm0 0" fill="#0635c9"/><path d="m363.734375 169.085938h-216.199219l-14.957031-94.472657h-34.75l19.707031 124.472657h216.199219c12.152344-.003907 22.96875-7.703126 26.953125-19.183594l3.757812-10.84375c-.238281.003906-.472656.027344-.710937.027344zm0 0" fill="#d4e1f4"/></svg>