<svg height="512pt" viewBox="1 1 511.99998 511.99998" width="512pt" xmlns="http://www.w3.org/2000/svg"><path d="m512 256c0 141.386719-114.613281 256-256 256s-256-114.613281-256-256 114.613281-256 256-256 256 114.613281 256 256zm0 0" fill="#e3f6ff"/><path d="m256 0c-10.105469 0-20.074219.585938-29.875 1.722656 127.308594 14.800782 226.125 123 226.125 254.277344s-98.816406 239.476562-226.125 254.277344c9.800781 1.136718 19.769531 1.722656 29.875 1.722656 141.386719 0 256-114.613281 256-256s-114.613281-256-256-256zm0 0" fill="#cee8f2"/><g fill="#fc5c5a"><path d="m210.792969 248.089844c5.402343-2.535156 8.597656-9.59375 8.597656-18.300782 0-14.664062-9.921875-19.738281-23.261719-19.738281-18.632812 0-24.144531 11.355469-24.144531 19.1875 0 4.628907.992187 6.171875 7.386719 6.171875 5.292968 0 6.835937-2.203125 6.835937-5.511718 0-4.410157 2.644531-7.386719 9.8125-7.386719 5.953125 0 9.703125 2.425781 9.703125 9.703125 0 9.480468-4.632812 10.804687-10.144531 10.804687-3.199219 0-4.300781 2.863281-4.300781 5.621094 0 2.867187 1.101562 5.621094 4.300781 5.621094 7.054687 0 12.128906 2.316406 12.128906 10.476562v2.09375c0 8.378907-3.53125 11.90625-11.800781 11.90625-7.054688 0-11.464844-3.085937-11.464844-8.046875 0-3.53125-1.542968-5.074218-7.386718-5.074218-4.960938 0-6.835938 1.214843-6.835938 5.625 0 8.929687 7.273438 20.066406 25.355469 20.066406 14.554687 0 26.464843-6.726563 26.464843-24.476563v-2.09375c0-9.152343-4.742187-14.113281-11.246093-16.648437zm0 0"/><path d="m256.769531 222.621094c6.066407 0 11.246094 2.976562 11.246094 8.160156 0 4.300781 3.527344 5.402344 7.5 5.402344 4.519531 0 6.722656-1.433594 6.722656-5.953125 0-9.261719-7.496093-20.175781-25.136719-20.175781-14.996093 0-26.574218 6.835937-26.574218 25.246093v30.761719c0 18.414062 11.355468 25.25 25.910156 25.25s25.800781-6.835938 25.800781-25.25v-1.542969c0-17.421875-10.363281-22.824219-22.820312-22.824219-5.734375 0-11.027344 1.324219-14.664063 5.625v-12.019531c0-8.710937 4.519532-12.679687 12.015625-12.679687zm-.441406 30.320312c7.277344 0 11.578125 3.417969 11.578125 12.570313v1.433593c0 8.710938-4.300781 12.679688-11.46875 12.679688-7.273438 0-11.6875-3.96875-11.6875-12.679688v-2.425781c.003906-8.382812 4.632812-11.578125 11.578125-11.578125zm0 0"/><path d="m342.769531 235.300781c0-18.414062-11.355469-25.25-25.910156-25.25-14.550781 0-25.796875 6.835938-25.796875 25.25v30.761719c0 18.410156 11.246094 25.246094 25.796875 25.246094 14.554687 0 25.910156-6.835938 25.910156-25.246094zm-14.332031 30.761719c0 8.710938-4.410156 12.679688-11.578125 12.679688-7.273437 0-11.464844-3.96875-11.464844-12.679688v-30.761719c0-8.710937 4.1875-12.679687 11.464844-12.679687 7.167969 0 11.578125 3.96875 11.578125 12.679687zm0 0"/></g><path d="m512 256c0-36.894531-27.300781-71.171875-76.871094-96.515625-17.957031-9.179687-38.105468-16.816406-59.832031-22.78125-5.964844-21.726563-13.601563-41.875-22.78125-59.832031-25.34375-49.570313-59.621094-76.871094-96.515625-76.871094-37.429688 0-72.335938 28.488281-97.519531 78.867188l-8.300781-24.839844c-1.3125-3.929688-5.5625-6.046875-9.492188-4.734375s-6.050781 5.5625-4.738281 9.488281l14.335937 42.886719c1.050782 3.140625 3.976563 5.125 7.113282 5.125.789062 0 1.589843-.125 2.378906-.386719l42.886718-14.335938c3.929688-1.3125 6.046876-5.5625 4.734376-9.492187s-5.558594-6.046875-9.488282-4.734375l-26.601562 8.890625c22.550781-45.820313 52.882812-71.734375 84.691406-71.734375 30.976562 0 60.511719 24.398438 83.160156 68.699219 7.566406 14.796875 14.027344 31.195312 19.324219 48.796875-31.886719-7.238282-66.632813-11.046875-102.484375-11.046875-67.539062 0-131.15625 13.507812-179.128906 38.035156-49.570313 25.34375-76.871094 59.621094-76.871094 96.515625s27.300781 71.171875 76.871094 96.515625c17.957031 9.183594 38.105468 16.820313 59.832031 22.78125 5.964844 21.726563 13.601563 41.878906 22.78125 59.835937 25.34375 49.566407 59.621094 76.867188 96.515625 76.867188s71.171875-27.300781 96.515625-76.871094c9.1875-17.964844 16.824219-38.128906 22.789063-59.871094 84.445312-23.144531 136.695312-68.609374 136.695312-119.257812zm-428.300781 83.160156c-44.300781-22.648437-68.699219-52.183594-68.699219-83.160156s24.398438-60.511719 68.699219-83.160156c14.808593-7.570313 31.21875-14.039063 48.835937-19.335938-7.355468 32.273438-11.085937 66.683594-11.085937 102.496094 0 35.851562 3.808593 70.597656 11.046875 102.484375-17.601563-5.292969-34-11.757813-48.796875-19.324219zm255.460937 89.140625c-22.648437 44.300781-52.183594 68.699219-83.160156 68.699219s-60.511719-24.398438-83.160156-68.699219c-7.566406-14.796875-14.027344-31.195312-19.324219-48.796875 31.886719 7.242188 66.632813 11.046875 102.484375 11.046875 17.714844 0 35.300781-.9375 52.484375-2.796875l-16.390625 22.917969c-2.40625 3.371094-1.628906 8.054687 1.738281 10.464844 1.324219.945312 2.847657 1.398437 4.359375 1.398437 2.335938 0 4.640625-1.089844 6.105469-3.136718l26.300781-36.785157c.828125-1.152343 1.292969-2.507812 1.378906-3.898437.003907-.054688.011719-.105469.015626-.160156 0-.085938 0-.171876 0-.253907.007812-.40625-.011719-.8125-.070313-1.226562-.359375-2.460938-1.878906-4.460938-3.925781-5.542969l-35.921875-25.683594c-3.367188-2.40625-8.050781-1.632812-10.460938 1.738282-2.410156 3.367187-1.628906 8.054687 1.738281 10.460937l21.03125 15.039063c-15.855468 1.628906-32.054687 2.464843-48.386718 2.464843-37.746094 0-74.140625-4.339843-107.007813-12.539062-8.199219-32.867188-12.539062-69.261719-12.539062-107.011719 0-37.628906 4.242187-73.605469 12.589843-107.027344 32.855469-8.1875 69.230469-12.523437 106.957032-12.523437 37.75 0 74.144531 4.339843 107.011718 12.539062 8.199219 32.867188 12.539063 69.261719 12.539063 107.011719 0 39.109375-4.652344 76.769531-13.4375 110.554688-.160156.4375-.28125.894531-.359375 1.359374-5.8125 22.023438-13.386719 42.386719-22.589844 60.386719zm123.046875-110.921875c-20.605469 16.875-49.019531 30.957032-82.695312 41.0625 7.234375-31.875 11.039062-66.605468 11.039062-102.441406 0-35.851562-3.808593-70.597656-11.046875-102.484375 17.601563 5.292969 34 11.757813 48.796875 19.324219 44.300781 22.648437 68.699219 52.183594 68.699219 83.160156 0 21.507812-12.03125 42.734375-34.792969 61.378906zm0 0" fill="#59c7d3"/></svg>