<svg width="3060" height="2550" viewBox="0 0 3060 2550" xmlns="http://www.w3.org/2000/svg" xmlns:xlink="http://www.w3.org/1999/xlink"><svg viewBox="0 0 510 510" width="510" height="510" x="510"/><svg viewBox="0 0 510 510" width="510" height="510" x="1020" y="1530"><path fill="#D54955" d="M253.5 81.3c-1.1-.1-2-.5-1.9-1.8.1-.9.8-1.4 1.7-1.4 1.2-.1 2.1.5 2.1 1.6.2 1.2-.8 1.5-1.9 1.6z"/><path fill="#FE755B" d="M73.8 260.3c-1.2-.1-1.7-.8-1.7-1.9 0-1.1.6-2 1.7-2 .9 0 1.4.8 1.4 1.7.1 1.1-.1 2-1.4 2.2z"/><path fill="#8E4358" d="M433.8 258.9c.1 1.7-.5 2.6-1.5 2.6-1.3.1-1.6-1-1.6-2 0-.9.3-1.7 1.3-1.9 1.2-.2 1.6.8 1.8 1.3z"/><path fill="#654253" d="M252.6 439.9c-1.1.1-2-.4-2.2-1.5-.2-1.2.7-1.7 1.7-1.7 1-.1 2 .1 2.2 1.3.1 1.1-.6 1.7-1.7 1.9z"/></svg><svg viewBox="0 0 510 510" width="510" height="510" y="510"><path fill="#CD2633" d="M253.5 84.2c-3.1 0-4.9-1.4-5-4.4 0-3.2 2.1-4.7 5.1-4.7 2.9 0 4.8 1.7 4.9 4.5.1 3.2-1.9 4.7-5 4.6z"/><path fill="#FE5A3B" d="M78.2 258.4c.1 3.1-1.3 5-4.4 5-3 .1-4.6-1.9-4.7-4.7-.1-3.1 1.6-5.3 4.7-5.2 3.1-.1 4.5 1.9 4.4 4.9z"/><path fill="#771E37" d="M427.7 259.3c0-2.9 1.5-4.8 4.4-4.8 3.2 0 4.7 2.1 4.6 5.2-.1 2.9-1.7 4.8-4.5 4.8-3.1.1-4.6-2-4.5-5.2z"/><path fill="#461D31" d="M257.4 438.1c-.2 3-1.9 4.5-4.7 4.6-3.1.1-5.2-1.4-5.3-4.5-.1-2.8 1.7-4.5 4.7-4.5 3.1-.1 5 1.2 5.3 4.4z"/><path fill="#2E202A" d="M250.3 260c-.6-3 .6-4.3 3.7-3.7.8.9.9 1.8.4 2.9-1.2 1.3-2.5 2.1-4.1.8zm0 0c1.2.1 2.4-.1 3.3-1l.2.2c0 1 .9 2.3-.7 2.7-1.4.3-2.3-.6-2.8-1.9zm3.5-.9l-.2-.2c.1-.9.2-1.8.4-2.6 1.8.7 2.7 2.1 1.5 3.7-.6.9-1.2-.4-1.7-.9z"/></svg><svg viewBox="0 0 510 510" width="510" height="510" x="510" y="510"><path fill="#CB1E2C" d="M253.6 54.8c14.5 0 25.4 10.8 25.4 25 0 14.1-11.3 25-25.6 25-14.3-.1-25.5-11.2-25.4-25.2 0-14 11.2-24.8 25.6-24.8z"/><path fill="#FE5434" d="M48.8 257.9c.1-14.4 11.1-25.2 25.4-25 14 .2 24.9 11.6 24.6 26-.2 14.2-11.5 25.3-25.6 25.1-13.9-.2-24.5-11.5-24.4-26.1z"/><path fill="#731630" d="M457.1 259.6c0 14.5-10.8 25.5-25 25.5-14.1 0-25.1-11.2-25-25.6 0-14.3 11.1-25.5 25.1-25.5 14.1 0 24.9 11.1 24.9 25.6z"/><path fill="#40152A" d="M252.2 463.1c-14.5-.1-25.4-10.9-25.3-25.1.1-14 11.4-25 25.7-24.9s25.4 11.2 25.4 25.3c-.1 14-11.3 24.8-25.8 24.7z"/><path fill="#332630" d="M253.3 253.2c-3.7-.2-6 2-6.2 5.6-.1 3.7 2.2 5.6 5.8 6.2 3.5-.5 5.9-2.3 5.9-6 0-3.4-2.1-5.6-5.5-5.8zm-.5 8.9c-2 0-3-1.2-3-3.2.1-2 1.3-3 3.2-3 2 .2 3.1 1.2 3 3.2 0 2-1.2 3-3.2 3z"/></svg><svg viewBox="0 0 510 510" width="510" height="510" x="1020"><path fill="#CB1E2C" d="M253.4 125.2c-25.7-.1-45.9-20.1-45.9-45.4 0-25.5 20.6-45.8 46.3-45.7 25.4.1 45.9 20.4 46 45.5-.1 25.6-20.6 45.7-46.4 45.6z"/><path fill="#FE5434" d="M119.2 258.6c-.1 25.7-20.2 46-45.4 45.9-25.5-.1-45.8-20.7-45.7-46.3.1-25.4 20.5-46 45.6-46 25.5.1 45.6 20.5 45.5 46.4z"/><path fill="#731630" d="M386.7 259.3c.1-25.7 20.2-45.9 45.5-45.8 25.5.1 45.7 20.6 45.6 46.4-.1 25.4-20.5 45.9-45.6 45.9-25.5-.1-45.6-20.7-45.5-46.5z"/><path fill="#40152A" d="M252.5 392.7c25.7.1 45.9 19.9 46 45.3s-20.4 45.8-46.1 45.8c-25.6-.1-46.3-20.6-46.1-45.9.2-25.4 20.5-45.2 46.2-45.2z"/><path fill="#281A24" d="M252.9 248.8c-5.8 0-10.1 4.2-10.2 10 0 6 4.4 10.4 10.4 10.3 5.8 0 10-4.4 10-10.2s-4.3-10.1-10.2-10.1zm.1 16.1c-3.5-.5-5.9-2.3-5.9-6 0-3.4 2.2-5.6 5.6-5.7 3.6 0 5.9 2.2 5.9 5.9.1 3.4-2.2 5.2-5.6 5.8z"/></svg><svg viewBox="0 0 510 510" width="510" height="510" x="1020" y="510"><path fill="#CB1E2C" d="M253.4 128.2c-27.4-.1-49.3-21.8-49-48.6.4-27.2 22-48.5 49.3-48.4 27.2.1 49.1 21.8 49 48.8 0 26.9-22 48.3-49.3 48.2z"/><path fill="#FE5434" d="M122.2 258.4c0 27.3-21.1 48.9-47.9 49.2-27.1.3-49.2-21.7-49.1-49.1 0-27.2 21.6-49.1 48.6-49.2 26.8-.2 48.4 21.7 48.4 49.1z"/><path fill="#731630" d="M383.7 259.5c.1-27.5 21.6-49.2 48.5-49.1 27.1.2 48.6 22 48.5 49.2S459 308.7 432 308.7c-26.8 0-48.3-21.9-48.3-49.2z"/><path fill="#40152A" d="M252.5 389.7c27.5.1 49.2 21.7 49 48.6-.2 27.1-22 48.5-49.3 48.5-27.2-.1-49.1-21.8-49-48.7.1-27 22-48.5 49.3-48.4z"/><path fill="#261922" d="M253.3 242c-9.5-.1-17.3 7.5-17.4 16.9-.1 9.3 7.4 16.9 16.6 17.1 9.5.1 17.3-7.5 17.4-16.9.1-9.3-7.3-16.9-16.6-17.1zm-.2 26.8c-5.2.1-9.9-4.4-10-9.7-.1-5.2 4.4-9.9 9.7-10 5.2-.1 9.9 4.5 10 9.7.1 5.2-4.4 9.9-9.7 10z"/></svg><svg viewBox="0 0 510 510" width="510" height="510" y="1020"><path fill="#CB1E2C" d="M254.3 129.5c-27.8.7-50.7-21.3-51.1-49.1-.5-26.9 21.5-49.8 48.3-50.4 28.6-.6 51.7 20.6 52.4 48.3.7 28-21.1 50.5-49.6 51.2z"/><path fill="#FE5434" d="M123.5 257.6c.8 27.3-21 50.3-48.6 51.1-26.8.8-50.1-21.1-50.8-47.8-.8-28.9 20.5-52.2 48.3-52.8 28-.7 50.3 20.9 51.1 49.5z"/><path fill="#731630" d="M382.4 259.6c0-28 22.2-50.4 49.8-50.4 27.6 0 49.7 22.6 49.6 50.6-.1 27.9-22.4 50.2-50.1 50.1-27.3-.2-49.3-22.5-49.3-50.3z"/><path fill="#40152A" d="M251.6 388.4c27.9-.6 50.7 21.3 51.1 49.1.4 26.9-21.5 49.8-48.3 50.4-28.8.6-51.9-20.9-52.4-48.8-.4-27.8 21.4-50.1 49.6-50.7z"/><path fill="#261822" d="M252.9 231.1c-15.1 0-27.6 12.4-27.8 27.6-.2 15.3 12.4 28.1 27.7 28.2 15.4.1 28.1-12.6 28.1-27.9s-12.7-28-28-27.9zm-.1 44.1c-9.2-.1-16.3-7.4-16.1-16.6.2-9 7.4-15.9 16.4-15.8 9.2.1 16.3 7.4 16.1 16.6-.2 8.9-7.4 15.9-16.4 15.8z"/></svg><svg viewBox="0 0 510 510" width="510" height="510" x="510" y="1020"><path fill="#CB1E2C" d="M253.4 29.8c28.4 0 50.6 21.8 50.7 49.9 0 28-22.4 50.2-50.6 50.1-28-.1-50.4-22.2-50.5-49.8-.1-28 22.1-50.1 50.4-50.2z"/><path fill="#FE5434" d="M23.8 258.4c0-28.5 22-50.6 50.2-50.5 27.7.1 49.9 22.5 49.9 50.5 0 28.2-22.3 50.6-50.3 50.6-27.8-.1-49.8-22.4-49.8-50.6z"/><path fill="#731630" d="M482.1 259.7c-.1 28.4-22.1 50.4-50.2 50.3-27.7-.1-49.8-22.5-49.8-50.4 0-28.4 22.4-50.8 50.6-50.6 27.6.1 49.5 22.6 49.4 50.7z"/><path fill="#40152A" d="M252.6 488.1c-28.4.1-50.7-21.8-50.7-49.8s22.3-50.2 50.5-50.2c28 0 50.4 22.1 50.5 49.7.2 28.1-22 50.2-50.3 50.3z"/><path fill="#261822" d="M253.2 209c-27.5-.1-50 22.1-50.2 49.5-.2 27.8 22.2 50.4 49.9 50.4 27.5 0 49.9-22.4 50-49.8.1-27.5-22.2-50-49.7-50.1zm-.3 80c-16.6 0-30.1-13.6-29.9-30.3.1-16.4 13.6-29.7 30-29.7 16.6 0 30.1 13.6 29.9 30.3-.1 16.4-13.6 29.7-30 29.7z"/></svg><svg viewBox="0 0 510 510" width="510" height="510" x="1020" y="1020"><path fill="#271923" d="M301.8 94.5c18.6 6.2 36.1 14.3 51.9 25.9 30 22.2 51 51 62.5 86.6.4 1.4 1.1 2.7 1.7 4v.1c1.7 10.2 4.6 20.2 5.4 30.7 1.1 14.1 1.1 28.2-.9 42.1-1.2 8-3 15.8-4.5 23.7 0 .1 0 .1-.1.2-2 2.3-2.2 5.4-3.2 8.1-19.9 52.6-56.3 88.1-109.7 106.2-1.3.4-2.9.4-3.9 1.6l-.2.2c-11.3 2.3-22.5 5.2-34 5.8-21.3 1.2-42.4-.3-62.9-6.8-57.3-18.5-95.3-56.5-114.6-113.4-.3-.9-.7-1.8-1.1-2.7v-.1c-2.9-12.6-5.6-25.2-6.2-38.2-1-19.9 1.3-39.4 6.6-58.5 8.1-25.3 20.6-48.1 38.8-67.6 20.2-21.7 44.4-37.1 72.6-46.5 1.7-.6 3.4-1.2 5-1.9h.1c1.3-.2 2.6-.4 3.9-.7 12.6-3.2 25.3-5.1 38.3-5.6 18.5-.5 36.6 2.1 54.5 6.8zm58.3 164.2c-.2-59.1-48.1-106.9-107.1-106.9-59.2 0-107.3 48.2-107.2 107.4.2 59.1 48.1 106.9 107.1 106.9 59.3 0 107.4-48.2 107.2-107.4z"/><path fill="#40162B" d="M203.7 423.5c.1-.3.3-.4.6-.3 20.4 6.4 41.3 7.8 62.4 6.6 11.4-.6 22.5-3.5 33.7-5.8.2 0 .5.1.5.3 5.8 20.2-1.5 41.8-18.4 54.2-17 12.4-41.1 12.9-58.6 1.2-17.6-11.8-25.7-33.1-20.6-54.3.2-.6.3-1.3.4-1.9z"/><path fill="#731731" d="M418.1 308c-.2-.1-.3-.3-.3-.5 1.5-7.8 3.3-15.6 4.5-23.5 2.1-14 2-28 .9-42.1-.8-10.3-3.7-20.2-5.3-30.4 0-.2.1-.4.3-.5 20.4-5.8 41.7 1.4 54.2 18.4s13 41 1.3 58.6c-11.7 17.5-33.1 25.8-53.7 20.8-.6-.2-1.2-.5-1.9-.8z"/><path fill="#CB1F2D" d="M301.9 94.1c-.1.2-.3.3-.5.3-17.8-4.6-35.7-7.2-54.2-6.5-13 .5-25.7 2.3-38.3 5.6-1.1.3-2.3.5-3.5.7-.2 0-.4-.1-.5-.3-7.6-28 8.6-56.2 36.2-62.7 29.4-6.9 57.3 11.2 62.4 40.8 1.3 7.3 1.1 14.9-1.6 22.1z"/><path fill="#FE5435" d="M88.2 210c.2.1.3.3.3.5-5.2 19-7.5 38.4-6.5 58.2.6 12.8 3.3 25.3 6.1 37.8.1.2-.1.5-.3.5-28.3 7.6-56.6-8.9-62.7-36.7-6.5-29.4 11.5-56.9 40.9-61.9 7.4-1.3 14.9-1 22.2 1.6z"/></svg><svg viewBox="0 0 510 510" width="510" height="510" x="1530"><path fill="#261822" d="M427.8 214.2c-.5-1.9-1-3.8-2.8-5.1-14.9-49.3-45.3-85.8-90.7-109.8-9.7-5.1-20-8.7-30.3-12.4-1.4-1.5-3.4-2.1-5.3-2.6-29.7-7.7-59.4-8-89.2-.5-2.2.6-4.6.9-6.1 3l-3.3 1.1c-48.2 15.5-83.7 45.8-107.1 90.6-4.9 9.5-8.3 19.6-12 29.5-1.6 1.4-2.1 3.3-2.5 5.3-7.7 29.6-8 59.3-.5 89.1.5 2.2.8 4.6 2.9 6.1.3 1.1.7 2.2 1.1 3.3 15.3 47.8 45.4 83.3 89.7 106.7 9.8 5.1 20.1 8.7 30.4 12.4 1.3 1.4 3 2 4.8 2.5 30.3 7.8 60.6 8.1 90.9.3 1.9-.5 3.8-1.1 5.1-2.9 42.8-12.8 76.3-38 100.8-75.2 9.3-14.2 15.9-29.8 21.3-45.8 1.4-1.3 2-3 2.5-4.8 7.9-30.2 8.2-60.5.3-90.8zM385.1 273c.7 2.9 1.6 5.8.9 8.8-9.6 54.9-51.8 99.8-110.3 110.4-4.2.7-8.2-.4-12.2-1.3-8.2-2-16.3-1.6-24.5.3-3 .7-6.1 1.7-9.2 1-58.6-12.8-95.2-48.1-109.4-106.5-.5-1.9-.7-3.9-1-5.9-.1-2.3.3-4.7.9-6.9 2.6-10 2.6-20-.2-30-.3-1.5-.8-3.2-.3-4.9 3.5-25.6 14.3-48 31.1-67.3 21.5-24.8 48.7-39.7 81-45.2 2.5-.1 4.9.4 7.3 1 10 2.6 19.9 2.5 29.8-.2 1.5-.4 3.2-1 4.8-.5 25.6 3.5 47.9 14.3 67.3 31 24.4 21.1 39.2 47.7 45 79.4.7 4.2-.5 8.2-1.4 12.2-1.9 8.3-1.5 16.4.4 24.6z"/><path fill="#40152A" d="M202 430.9c9.2 1.8 18.3 4.4 27.7 5.4 12.5 1.4 25 2 37.6.9 12.1-1.1 23.9-3.3 35.5-6.3.4 9.4-.2 18.6-4.1 27.3-10 22.6-35.2 34.6-59.7 28.4-23.9-6.1-39.5-28.4-37.3-53.2.1-.8.2-1.6.3-2.5z"/><path fill="#CB1E2C" d="M303.9 87c-16.1-3.9-32.3-7-49-7.1-17.5-.1-34.7 2.4-51.5 6.9-3.5-30 17.6-54 44.3-56.7 37-3.8 60.9 27.1 56.2 56.9z"/><path fill="#FE5434" d="M81 208c-3.8 15.7-6.8 31.5-7 47.8-.3 17.9 2.2 35.5 6.8 52.8-21.2 2-38.3-5.3-49.4-23.5-10.8-17.6-10.8-36.4.1-53.9C42.7 213 59.8 205.6 81 208z"/><path fill="#731630" d="M424.9 309.9c1.8-8.9 4.4-17.6 5.4-26.7 1.5-13.2 2.1-26.3.9-39.6-1-11.8-3.3-23.2-6.3-34.5 14.5-1.1 27.8 1.9 39.1 11.4 17.2 14.4 22.9 38.5 14.1 59.3-8.8 21.2-28.8 32.4-53.2 30.1z"/><path fill="#41172C" d="M230 392.2l14.5-3.5c8.8-1.1 17.3-.3 25.6 2.6 1.9.7 3.8 1 5.8 1-12.2 2.4-24.5 2.3-36.8 1.1-2.9-.4-6.2.6-9.1-1.2z"/><path fill="#741832" d="M386.2 281.8c-1.1-4.5-2.4-8.9-3.3-13.4-1.7-9.1-.7-18.1 2.5-26.8.6-1.8.7-3.5.8-5.3 2.1 11.8 2.4 23.6 1.2 35.4-.4 3.3.5 6.9-1.2 10.1z"/><path fill="#CB212E" d="M273.9 125.8c-14.1 6-28.1 4.8-42-.3 14-2 28-2.6 42 .3z"/><path fill="#FC5536" d="M119.8 238c5.9 14 4.9 27.9-.2 41.8-2.2-13.9-2.6-27.8.2-41.8z"/></svg><svg viewBox="0 0 510 510" width="510" height="510" x="1530" y="510"><path fill="#261822" d="M423 216.1c-.5-2.2-1.2-4.5-3.2-6-1.5-4.6-2.8-9.2-4.6-13.7-21-52-58.5-86.5-111.7-104.1-1.9-2.3-4.8-2.8-7.5-3.5-28.5-7.1-57.1-7.2-85.7-.2-2.2.5-4.5 1-6 3.1-41.6 12.6-74.3 37.1-98.1 73.5-8.8 13.5-14.9 28.1-20.2 43.2-2 1.6-2.3 4-2.9 6.2-7.5 29-7.6 58.2-.4 87.3.5 2.1 1.1 4.2 3 5.6 9.8 32.6 27.3 60.3 53 82.7 18.5 16.1 39.3 28.2 63 34.9 1.7 2.1 4 2.9 6.3 3.5 29.5 7.7 59.1 7.8 88.7.3 1.9-.5 3.7-1.3 5-3 23-6.5 43.7-17.6 62-32.9 26.6-22.2 45.3-49.7 55.3-83 2.5-1.8 3.1-4.7 3.8-7.4 7.3-28.8 7.3-57.7.2-86.5zm-22.2 82.1c1.7 1.5 4 2.6 3.3 5.6-13.6 42.7-39.9 74.7-79.6 95.5-9.6 5-19.6 9.1-30.2 11.5-1.7-.5-2.7-1.8-3.8-3.1-18.3-23.3-56.7-24.8-77-.7-1.5 1.7-2.7 4-5.6 3.2-27.9-8.8-52-23.6-71.6-45.3-16.9-18.7-29-40-35.3-64.5.5-1.7 1.9-2.7 3.2-3.7 24-19.5 24.3-56.9.8-76.9-1.4-1.2-3-2.1-3.3-4.2 5.8-21.9 16.5-41.3 31.2-58.4 21.1-24.6 47.1-41.6 78.7-50 1.7.5 2.7 1.8 3.7 3.2 18.4 23.3 56.7 24.8 77 .7 1.2-1.4 2.1-3 4.2-3.3 36.3 10.4 64.8 31.5 86.3 62.2 10.1 14.5 17.7 30.3 21.9 47.6-.5 1.7-1.9 2.7-3.1 3.7-23.9 19.6-24.3 56.8-.8 76.9z"/><path fill="#40152A" d="M201.7 425.1c33.3 10.6 66.7 10.5 100.1.9.9 8.6 1.5 17.1-.9 25.7-7.3 26-33.9 41.3-61.5 35.2-25.5-5.7-42.2-30.9-37.9-56.8.5-1.8 1-3.4.2-5z"/><path fill="#CB1E2C" d="M303.7 92.3c-15.9-4.5-32-7.2-48.6-7.4-17.2-.2-34.1 2.2-50.7 6.8-4-21 1.7-38.6 18.8-51.8 16.3-12.6 40.1-13.5 57.8-2.8 17.8 10.7 26.6 30.4 23.2 51.8-.3 1.1-.4 2.3-.5 3.4z"/><path fill="#731630" d="M419.2 310c10.4-33.2 10.4-66.5.8-99.9 7.9-.9 15.8-1.7 23.8.3 27.1 6.8 42.8 32.6 37.1 61.2-5.1 25.8-30.4 42.9-57.3 38.6-1.4-.2-2.9-.1-4.4-.2z"/><path fill="#FE5434" d="M86.1 208.4c-2.5 11-5.1 21.9-6.3 33.1-2.3 22.4 0 44.3 5.9 66-28.9 6.3-51.8-11.1-58.7-31.5-14.1-41.4 20.9-77 59.1-67.6z"/><path fill="#40152A" d="M208 410.1c2.5 0 3.1-2.3 4.3-3.7 21.4-26 64.6-23.7 82.1 4.4-8 2.9-16.4 4.1-24.7 5-20.9 2.4-41.5 0-61.7-5.7z"/><path fill="#731630" d="M404.1 303.8c-.1-2.2-2.1-2.8-3.5-3.9-26.3-21.3-24.1-64.9 4.1-82.2 2.9 7.8 4.1 16.1 5 24.3 2.3 20.8.3 41.5-5.6 61.8z"/><path fill="#CB1E2C" d="M296.5 107.7c-18.6 27-55.5 27.7-75.9 9.9-3.5-3.1-6.8-6.3-9-10.5 15.8-4.6 31.8-6.4 48.3-5.5 12.4.7 24.7 2.3 36.6 6.1z"/><path fill="#FE5434" d="M101.8 215.5c29.1 19.7 28.9 63.8 1.5 83.6-.7.5-1.4.8-2.1 1.2-5.7-19.4-7-39.1-4.7-59.1.9-8.7 2.2-17.4 5.3-25.7z"/></svg><svg viewBox="0 0 510 510" width="510" height="510" x="1530" y="1020"><path fill="#261822" d="M430.5 248.3c-.2-11.5-2.2-22.8-5.1-33.9-.4-1.6-1.1-3.2-2.4-4.3-.4-.8-.8-1.5-1-2.3-11.1-35.9-31.5-65.3-61-88.5-16.9-13.2-35.9-22.5-56.2-29.4-2-2.2-4.9-2.6-7.6-3.4-18-5.2-36.4-5.4-54.9-5-11.5.2-22.8 2.2-33.9 5.1-1.6.5-3.2 1.1-4.3 2.4-.7.4-1.4.8-2.2 1-38 11.8-68.6 33.8-92.1 65.8-11.5 15.7-19.6 33.1-25.9 51.4-2.2 2-2.6 4.9-3.4 7.6-5.2 18-5.4 36.4-5 54.9.2 11.5 2.2 22.8 5.1 33.9.5 1.6 1.1 3.2 2.4 4.3.3.7.8 1.4 1 2.2 10.5 34 29.3 62.4 56.7 85 17.6 14.5 37.1 25.6 59.2 31.9 3.1 2.9 7.1 4.1 11.3 4.9 27.6 6.3 55.3 6.3 83 .2 3.3-.7 6.3-1.8 8.8-4.2.8-.1 1.6-.2 2.4-.4 31.8-10.1 58.8-27.7 80.8-52.8 16.5-18.8 28-40.3 35.8-63.9 2.3-2 2.7-4.9 3.5-7.6 5.2-18 5.4-36.4 5-54.9zm-21.6-31.7c-16 10.2-24.9 24-24.8 43.7.1 13.1 3.4 24.5 12.2 34.3 3.4 3.8 7.4 6.7 11.6 9.4 1.8 1.2 4 2 3.4 4.9-14.3 42.7-41 75-80.5 96.6-9.8 5.3-20.2 9.2-30.7 12.8-3.1.9-3.5-1.8-4.6-3.5-6.1-9.9-14.1-17.9-25.3-21.5-22.7-7.4-47.4-2.6-61.4 19.6-1.4 1.9-2.1 5-5.8 4.3-30.1-10.1-55.8-26.8-76.4-51.1-14.7-17.3-25.4-36.8-32.1-58.5l-.7-3.4c3.2-3.7 7.9-5.3 11.4-8.6 10.6-9.9 16.4-21.5 16.6-36.4.1-13.4-2.8-25.3-11.9-35.4-3.2-3.6-7.1-6.5-11.1-9.2-1.6-1.1-3.6-1.8-4.3-3.9 14-44.8 42.2-77.8 83.7-99.5 9.3-4.9 19-8.8 29.2-11.3 4.2 2.9 5.6 8 9 11.6 9.9 10.4 21.3 16.2 36 16.4 13.6.2 25.6-2.7 35.9-11.9 3.6-3.3 6.5-7.1 9.2-11.1 1.1-1.6 1.8-3.6 3.9-4.3 56.2 18.6 93.1 56.1 110.8 112.6-.2 2.1-1.9 2.5-3.3 3.4z"/><path fill="#40152A" d="M199.9 427c22.3 8.2 45.5 9 68.7 7.7 11.6-.6 23.3-2.8 34.4-6.8-1.5 1.2-.9 2.7-.8 4.2 3.3 33.7-24.2 59.9-57.8 55.5-30.7-4-47.9-32.1-43.7-56.5.3-1.5.6-3-.8-4.1z"/><path fill="#CB1E2C" d="M304.8 89.9c-21.1-6.1-42.6-8.2-64.5-7-12.3.7-24.3 3.4-36.2 6.1-5-27.7 13.2-51.6 37-57.5 31.3-7.7 60.3 11.7 64.4 43.5.7 5.1-.1 10-.7 14.9z"/><path fill="#FE5434" d="M83.9 207.1c-6 21.3-8.4 42.9-7 65 .8 12.1 3.4 23.9 6 35.7-28.5 5-51.6-14-57.4-36.5-8.1-31.6 11.6-61 43.9-65 5-.6 9.7.3 14.5.8z"/><path fill="#731630" d="M421.9 310.8c2.9-10.9 5.7-21.8 6.5-33.1 1-12.6.9-25.3 0-37.9-.8-10.1-3.3-19.9-5.5-29.8 26.5-4.8 49.5 11.6 56.6 33.7 10.3 32-9.5 63.5-42.6 67.8-5.1.7-10-.2-15-.7z"/><path fill="#40152A" d="M203 417.2c2.3.3 2.5-1.7 3.3-3 10.3-17.2 25.4-25.8 45.4-25.6 20.3.1 35.3 9 45.3 26.7.7 1.2.9 3 2.9 2.9-10.8 2.9-21.8 4.8-32.9 6-21.9 2.3-43.1-1.1-64-7z"/><path fill="#731630" d="M411.2 308.8c.1-2-1.5-2.3-2.8-3-17.8-10.5-26.4-26-25.9-46.7.5-20.3 9.8-35 27.6-44.6.7-.4 1.4-.9 2-1.3 3.3 10.8 4.8 21.8 6 33 2.2 21.4-1.1 42.1-6.9 62.6z"/><path fill="#CB1E2C" d="M301.4 100.5c-13.9 28.2-43.4 34-66.5 25.5-12.8-4.7-21.7-13.9-27.5-26.2 18.6-5.5 37.5-7.7 56.9-6.1 12.7 1 25 3 37.1 6.8z"/><path fill="#FE5434" d="M94.6 210.6c34.9 16.6 35.9 61 15.8 81.9-4.8 5-10 9.2-16.5 11.7-5.8-17.8-7.5-36-6.4-54.5.7-13.3 2.8-26.4 7.1-39.1z"/></svg><svg viewBox="0 0 510 510" width="510" height="510" y="1530"><path fill="#261822" d="M427.3 215.5c-.5-2.1-1.3-4.1-3.1-5.5-3-11.5-7.5-22.4-13-32.8-23.2-43.7-58.5-72.9-105.3-88.4-1.6-2.2-4.1-2.7-6.5-3.3-29.6-7.8-59.3-8-89.1-1-2.2.5-4.6.8-6.2 2.8-15.1 5.1-29.9 10.9-43.5 19.3-38.2 23.7-64 56.9-78 99.5-2.2 1.6-2.7 4.1-3.3 6.5-7.7 29.6-8 59.3-.9 89.1.5 2.2.7 4.7 2.8 6.2L83 313c19.9 57.8 58.6 96.7 116.7 116.1 1.6 2.3 4.1 2.8 6.5 3.4 29.9 8 59.9 8.1 90 1 2.4-.6 4.5-1.5 6-3.4 1-.3 2-.4 2.9-.7 58.9-19.4 98.2-58.5 118-117.3 1.7-1.3 2.5-3 3.1-4.9 8.2-30.4 8.6-61 1.1-91.7zm-15.3-.2c-18.6 9.4-27.6 24.5-27.8 45.4-.3 21.4 9 36.6 27.8 46.3 1.5.8 3 1.5 3.9 3-8.5 28.4-24 52.4-45.3 72.9-19.9 19.1-43.3 32.3-69.7 40.3-2.9-.4-3.3-3.1-4.2-5.1-13.7-30.8-52.9-34.4-74.1-20.6-7.3 4.7-12.8 11-16.8 18.7-1.1 2-1.8 4.3-3.9 5.7-31.1-9.4-56.9-26.8-78.1-51.1-15.7-18-27.1-38.5-34.1-61.4-.3-1.1-.5-2.3-.7-3.4 1.5-2.3 4-2.8 6.2-4 17.3-9.3 26.1-23.7 26.7-43.4.4-13.6-2.9-25.6-11.9-35.9-4-4.5-8.8-8.1-14.1-10.9-2.2-1.1-4.5-1.8-5.8-3.9 7.2-24.9 20.3-46.5 37.8-65.4 20.7-22.3 45.6-37.9 74.7-47 1.1-.3 2.3-.5 3.4-.7 2.3 1.5 2.8 4 4 6.2 9.3 17.3 23.7 26.1 43.4 26.7 13.6.4 25.6-2.9 35.9-11.9 4.5-4 8-8.8 10.9-14.1 1.1-2 1.8-4.3 3.8-5.7 26.2 7.7 48.7 21.6 68.2 40.5 21.6 20.9 36.4 45.9 45 74.6-.6 2.7-3.2 3.2-5.2 4.2z"/><path fill="#40152A" d="M199.8 429c21.2 6.9 43 9.1 65 7.8 12.6-.8 25.3-2.5 37.4-6.7-.2 6 .6 11.9-.7 17.9-5.7 26.2-28.8 42.4-56.4 39.5-29.8-3.1-48.9-27.1-45.2-56.9 0-.6-.1-1.1-.1-1.6z"/><path fill="#731630" d="M423.1 312.1c10.3-34 10.9-68.1 1.1-102.2 7.3-.2 14.6-.5 21.8 1.6 23.6 6.9 37.7 29.2 35.7 55-2.4 28.9-28.6 50.8-58.6 45.6z"/><path fill="#CB1E2C" d="M305.9 88.7c-20.9-6.3-42.2-8.7-64-7.6-12.8.7-25.3 3.4-37.8 6.1-4-27.8 14.5-50.6 38.6-55.9 27.4-6 53.4 8 61.6 33.2 2.6 7.9 3.3 16 1.6 24.2z"/><path fill="#FE5434" d="M82.6 206c-6.1 20.6-8.7 41.6-7.6 63 .6 13.2 3.3 26 6.2 38.8-29.3 4-50.8-15.9-55.8-38.1-6.6-29 9.3-56.4 36.9-63.2 6.8-1.6 13.5-2 20.3-.5z"/><path fill="#40152A" d="M201.9 421.9c8.1-20.6 25-32.8 45.8-33.1 25.6-.4 42 9.8 51.6 32.1.4.9.6 2 1.7 2.3-19.2 5.7-38.9 7.9-58.8 6.6-13.8-.9-27.4-3-40.3-7.9z"/><path fill="#731630" d="M415.9 310c-20.4-7.8-32.8-25-33.1-45.7-.4-25.3 10.1-42.5 31.5-51.4 1-.4 2-1.1 2.9-1.7 5.6 19.1 7.9 38.7 6.6 58.5-1 13.7-3 27.3-7.9 40.3z"/><path fill="#CB1E2C" d="M304 96.1c-8.3 21.9-25.8 33.4-50.4 33.1-22.6-.3-40.1-12.8-47.7-34.2 11.1-4.1 22.8-5.6 34.4-6.5 21.7-1.7 43 .5 63.7 7.6z"/><path fill="#FE5434" d="M90.1 207.9c21.9 8.2 33.4 25.7 33.1 50.4-.3 22.6-12.8 40.1-34.2 47.7-6.4-19.6-8-39.7-6.4-60.1.9-12.9 2.9-25.7 7.5-38z"/></svg><svg viewBox="0 0 510 510" width="510" height="510" x="510" y="1530"><path fill="#261822" d="M428.4 215.9c-.5-2.3-1.3-4.4-3.2-6-10.3-36.5-30.6-66.4-59.8-90.4-17.3-14.2-36.9-24.2-57.9-31.5-1.5-2-3.9-2.5-6.1-3.1-30.2-8.2-60.5-8.7-91-1.5-2.3.6-4.6.9-6.3 2.8-1.3.5-2.7 1.2-4.1 1.6-36.2 11.3-65.8 32.1-89.1 61.9-12.9 16.6-22.1 35.1-29 54.8-1.9 1.5-2.4 3.9-3 6.1-8.2 30.2-8.7 60.5-1.5 91 .6 2.3.9 4.7 2.8 6.3.3.7.7 1.4.9 2.2 10.5 34.4 29.4 63.4 57 86.5 17.5 14.6 36.9 25.9 58.9 32.4 2.1 1.8 4.4 3.3 7.2 4 30.4 8.3 61 8.8 91.6 1.5 2.4-.5 4.7-1.4 6.4-3.4.9-.1 1.7-.2 2.5-.4 32.4-10.1 59.9-27.7 82.5-53 16.7-18.8 28.6-40.4 36.7-64.1 1.7-1.2 2.3-3.2 2.8-5.1 8.6-30.7 9.1-61.6 1.7-92.6zm-11.9-2.1c-20.5 7.8-32.1 24.8-32.3 46.8-.1 12.7 2.4 24.4 10.7 34.4 5.3 6.4 11.7 11.2 19.4 14.5 1.6.7 3.6.9 4.6 2.7-8.3 27.3-23.1 50.6-43.2 70.7-21 21-46.1 35.2-74.3 43.9-2.2-.5-2.4-2.5-3.1-4.2-8-20.9-24.8-32.2-47.3-32.4-23.6-.3-40.1 10-49.2 31.9-.4 1.1-.9 2.2-2 2.8-22.8-6.8-42.9-18.5-60.8-34-26.1-22.7-44.2-50.6-53.6-84 .6-2.2 2.7-2.2 4.4-2.8 20.2-7.7 31.8-24.8 32-46.6.1-12.7-2.4-24.4-10.6-34.5-5.3-6.5-11.8-11.2-19.4-14.5-1.7-.8-3.7-1-4.7-2.7 6.8-22.8 18.5-42.9 34-60.8 22.7-26.1 50.6-44.1 83.9-53.7 2.2.6 2.2 2.7 2.9 4.3 7.7 20.2 24.8 31.8 46.6 32.1 12.7.1 24.4-2.4 34.5-10.6 6.5-5.3 11.2-11.8 14.5-19.4.7-1.7.9-3.6 2.7-4.6 27.3 8.3 50.7 23.1 70.7 43.3 21 21 35.4 46 43.8 74.4-.5 2.3-2.6 2.4-4.2 3z"/><path fill="#40152A" d="M197 429c22.3 8.1 45.5 10.1 68.9 8.8 12.3-.7 24.6-2.8 36.4-6.7-.8 5.6 0 11.2-1.1 16.9-4.5 21.9-23.3 38-45.7 39.3-19.3 1.1-36-3.8-48-19.9-7.3-9.7-10.3-20.7-9.6-32.8.1-1.9 1.1-4.1-.9-5.6z"/><path fill="#731630" d="M423.9 313.6c2.5-9.8 5.2-19.5 6.5-29.5 1.8-14 2.1-28 .8-42.2-1-10.9-2.9-21.6-6-32.1 5.5.5 10.9-.2 16.4.9 22.3 4.5 38.5 23.2 39.6 45.8.6 12.9-.7 25.3-8.5 36.2-12.1 16.7-28.6 23.2-48.8 20.9z"/><path fill="#CB1E2C" d="M307.6 87.9c-19.7-5.6-39.7-8.8-60.3-8.1-13.3.5-26.4 2.3-39.2 5.5-1.3.3-2.6.5-3.9.7-1.8-21 5.5-38 23.9-48.4 18.8-10.7 38.8-10.5 57.3 1 17.9 11.2 24.6 28.5 22.2 49.3z"/><path fill="#FE5434" d="M81.9 204.4c-6.1 21.1-9.1 42.6-7.9 64.5.7 13.2 3.3 26 6.1 38.9-21 1.8-38-5.5-48.4-23.9-10.7-18.8-10.5-38.8 1-57.3 11.1-18 28.4-24.7 49.2-22.2z"/><path fill="#40152A" d="M199.7 424.8c5.4-20.6 24.6-35.3 45.8-36 19.2-.6 35.4 4.6 47.3 20.5 3.9 5.3 6 11.4 8.4 17.4-9.3 2.1-18.6 4.3-28.2 5.5-12.2 1.5-24.4 1.5-36.6.5-12.4-1-24.8-3.3-36.7-7.9z"/><path fill="#CB1E2C" d="M306.2 93.1c-5.4 20.5-24.5 35.5-45.6 35.9-10.4.2-20.6-.5-30-5.5-13.3-7-21.4-18-25.5-32.2 32.4-9.3 64.7-9 97 .2 1.3.5 2.7 1.1 4.1 1.6z"/><path fill="#FE5434" d="M87.1 205.8c20.3 5.3 35.3 24.3 35.9 45.1.3 10.6-.4 20.9-5.5 30.5-7 13.3-17.9 21.5-32.2 25.5-9.6-33.9-9.3-67.6 1.8-101.1z"/><path fill="#731630" d="M418.8 312.2c-20.3-5.3-35.4-24.3-35.9-45.2-.2-8.2-.1-16.3 2.8-24.1 5.3-14.4 15.1-24.4 29.4-29.9l5.6-2.1c4.6 15.5 7 31.4 6.9 47.4-.1 18.2-2.3 36.5-8.8 53.9z"/></svg><svg viewBox="0 0 510 510" width="510" height="510"><path fill="#40152A" d="M301.8 431.9c-.1 6.3-.1 12.6-1.8 18.8-5.7 21.1-24.6 36-46.5 36.2-7.8.1-15.7 0-23.3-2.3-23.2-7.2-37.2-29.9-33.6-54.5 2.1-1.7 4.1-.5 6.1.1 17.5 4.8 35.3 7.7 53.5 7.2 13.3-.3 26.4-2.1 39.3-5.3 2.2-.5 4.2-1.5 6.3-.2z"/><path fill="#CB1E2C" d="M204.4 85.8c-1.4-26.5 12.4-47.5 36.4-53.1 23.5-5.4 45.5-.4 59.1 17.6 8.4 11.1 11.7 23.7 9.3 37.6-1.9 1.5-3.8.5-5.7 0-17.5-5-35.4-7.7-53.6-7.3-13.3.3-26.5 1.9-39.4 5.2-2 .5-4.1 1.6-6.1 0z"/><path fill="#FE5434" d="M79.8 307.5C48.1 309.8 25 288 25 256.4c-.1-17.8 4.9-33.1 19.4-44.3 11.1-8.5 23.7-11.8 37.5-9.3 1.6 1.9.5 3.8 0 5.7-5 17.5-7.7 35.4-7.3 53.5.3 13.3 1.9 26.4 5.2 39.4.5 2 1.5 4.1 0 6.1z"/><path fill="#731630" d="M426 210.2c7.5-.1 14.9.2 22.1 2.7 19.4 6.7 32.6 24.9 32.9 45.4.1 8.5-.1 16.9-2.9 25.1-7.9 22.4-32.3 36.7-54 31.6-1.4-1.9-.3-3.8.2-5.7 4.9-17.5 7.7-35.4 7.3-53.6-.3-13.3-1.9-26.4-5.2-39.4-.8-2-1.8-4-.4-6.1z"/><path fill="#261822" d="M426 210.2c-11.3-39.4-33.6-71.3-66.1-96-15.4-11.5-32.6-19.8-50.6-26.4-16.3-4.8-32.9-8.1-49.8-8.7-18.6-.7-37 1.8-55 6.6-39.2 11.5-71.2 33.4-95.8 66.1C97 167.3 88.6 184.5 82 202.7l-.2 1.5c-10.9 34.3-11.2 68.7-2 103.3 16.5 54.5 50.5 93.6 102.7 116.9 4.6 2.1 9.5 3.9 14.2 5.8.3 0 .7-.1 1 0 22.6 6.5 45.4 10.5 69.1 8 11.9-1.3 23.6-3.1 35.1-6.2 9.8-2.6 19.3-6.1 28.4-10.6 45.9-22.5 76.9-58.2 93.7-106.3 5.1-16.4 8.1-33.2 8.8-50.3.7-18.5-1.8-36.7-6.8-54.6zm-7.3 3.2c-19.6 7.1-31.1 20.5-33.7 41.6-2 16.6.8 31.4 12.1 44.2 5.2 5.9 11.8 9.6 19 12.6 1.9.8 4.5.9 4.4 3.9-18.5 50.9-52.6 87.1-102.9 107.7-5.4 2.2-11 3.7-16.5 5.5-1.7-1.1-2-3-2.6-4.7-7.2-19.3-20.5-30.7-41.4-33.2-16.5-2-31.4.7-44.2 11.9-6 5.3-9.8 12-12.8 19.3-.9 2.3-1.4 5.1-5.1 3.8-28.1-10.3-52.6-26.1-72.8-48.4-18.5-20.5-32-44-39.1-70.8 1.2-1.6 3-1.9 4.7-2.6 19.2-7.1 30.6-20.4 33.1-41.1.9-7.6 1.1-15-.6-22.3-3.8-16.7-13.9-28-29.7-34.5-1.9-.8-4.4-.9-5.1-3.5C106.3 145.1 146 106.9 205 89.1c1.2 1 1.8 2.3 2.3 3.8 7 20.1 20.8 31.6 42.3 34.1 16.4 1.9 31-1 43.7-12.1 5.9-5.2 9.6-11.8 12.5-18.9.7-1.8.9-4 3.3-4.6 57.7 21 95.9 60.6 113.8 119.5-1 1.5-2.6 1.9-4.2 2.5z"/><path fill="#40152A" d="M195 426.1c2.2.5 2.6-.8 3.2-2.6 8.2-22.8 26-34.6 50.4-34.4 18.5.2 33.8 6.1 44.7 21.6 3.9 5.5 6.1 11.7 7.8 18.2-10.8 3.2-21.8 5.3-33 6-5.3.4-10.5 1.3-15.8 1-17.2-.7-34.2-2.8-50.7-8l-6.6-1.8z"/><path fill="#731630" d="M420.4 315.7c-.5-2.2-2.6-1.8-4-2.4-20.4-7.2-33.4-25.7-33.2-47.4.1-11.1 1-21.9 6.9-31.7 7.6-12.5 18.7-20.1 32.8-23.3 3.2 9.6 4.8 19.6 5.9 29.6 2.5 21.4.4 42.6-4.9 63.4-1 4-2.3 7.9-3.5 11.8z"/><path fill="#CB1E2C" d="M309.1 91.4c-.4.9-.9 1.7-1.2 2.6-7 20.2-21.1 32.1-42.3 34.3-16.7 1.7-32.6-.6-45.6-12.8-7.8-7.3-12.6-16.2-14.9-26.5 19.1-5.6 38.5-7.8 58.4-6.5 15.6 1.1 30.7 4.1 45.6 8.9z"/><path fill="#FE5434" d="M85.5 202.9c9 3.2 17.4 7.3 24.1 14.5 11.2 12.1 14.3 26.6 13.1 42.5-1.8 24.6-15.1 40.5-39.5 47-5.5-17.7-7.5-35.8-6.8-54.2.5-17 3.4-33.7 9.1-49.8z"/></svg><svg viewBox="0 0 510 510" width="510" height="510" x="1530" y="1530"><path fill="#40152A" d="M301.2 432.1c-.3 6.5.1 12.9-1.8 19.3-5.8 19.7-22.3 33.3-42.9 34.8-9 .6-18 .6-26.8-1.6-21.4-5.6-36.1-24.9-35.9-47.1l.1-8.4.8-.3c9.5 1.6 18.6 5.1 28.1 6.4 14.5 2 28.9 3.4 43.6 1.9 10.6-1.1 21.1-2.5 31.4-5.2 1.2-.4 2.4-.7 3.4.2z"/><path fill="#731630" d="M426.9 211.1c31-2.5 54.5 19.9 53.4 51.1-.2 6.8 0 13.7-1.9 20.3-5.9 21.3-24.9 35.7-47 35.5-2.8 0-5.7-.2-8.5-.3-1-2.8.3-5.3 1.1-7.7 5.5-18.1 7.9-36.6 7.4-55.4-.3-12.3-1.8-24.4-4.7-36.4-.4-2.3-1.8-4.8.2-7.1z"/><path fill="#CB1E2C" d="M205.1 85.1c-2.4-31.4 19.9-54.5 51.5-53.5 8.7.3 17.3.3 25.5 3.7 17.7 7.3 33.3 26.3 29.4 53.4-1.8.9-3.6.1-5.3-.4-13.3-3.9-26.8-6.7-40.7-7.5-8.5-.9-16.9-.9-25.4.1-10.3.5-20.4 2.3-30.4 4.7-1.6.4-3.2.8-4.6-.5z"/><path fill="#FE5434" d="M79.2 306.9c-31.7 2.3-54.7-20-53.5-52 .3-8 .3-15.9 3.2-23.6 8.3-22 29.8-34.3 53.8-30.8 1.1 4.9-2 8.9-2.5 13.5-2.8 10.6-4.6 21.3-5.2 32.2-1.1 8.1-.9 16.3-.3 24.4.8 10.8 2.3 21.5 5.1 31.9.4 1.6.5 3.1-.6 4.4z"/><path fill="#40152A" d="M193.1 426.9c2.6.4 2.3-1.9 2.8-3.3 7.2-21.6 25.7-34.7 48.5-33.9 7 .2 14-.3 20.8 1.7 18.1 5.3 29.6 17.1 34.6 35.2.5 1.7.2 3.9 3.1 3.3-1.5 2.8-4.6 2-6.8 2.6-17.3 4.4-34.9 6.3-52.7 5.2-14-.9-27.9-2.9-41.4-7.3-2.5-.8-5-1.8-7.7-1.7l-.4.1c-1.2.3-2.1-.4-2.9-1.1 0-1.8 1.1-1.2 2.1-.8z"/><path fill="#2C1824" d="M426.9 211.1l4.2 22.9c1.5 13.2 2.2 26.3 1.1 39.6-1.2 13.8-4 27.2-7.8 40.4-.4 1.3-.9 2.5-1.4 3.7l-1.2 3.1c-1.8 0-1.3-1.1-.9-2.1 0-.6 0-1.3.1-1.9-.6-2 0-3.9.6-5.9 9.4-30.4 10.5-61.1 3.3-92.1-.7-2.9-1.1-5.8-.6-8.8-.4-1.1-.8-2.2-1.2-3.2.2-.4.3-1 .9-1.1 2.3 1.2 1.2 4 2.9 5.4z"/><path fill="#281823" d="M194.3 428.8c1.6-1.7 3.3-.8 5-.2 20.9 7 42.4 9.3 64.2 8.2 11-.6 22.1-2 32.7-5.2 2.2-.7 4.8.3 6.6-1.6l3-1c1.2-.4 2.6-1.4 2.9.9l-7.7 2.2c-11.1 3.4-22.5 4.9-34.1 6.1-24.4 2.4-47.9-1.4-71-8.3-.5-.3-1-.7-1.6-1.1z"/><path fill="#381E24" d="M79.2 306.9c-4.2-18.2-6.9-36.6-6.1-55.3.1-2-.2-4 .8-5.9 2.1 1.9 1.4 4.5 1.5 6.8.1 1.8.1 3.6.7 5.3.6 15 2.2 29.9 5.8 44.6.3 1.3.3 2.6-.2 3.9-.4.9.5 2.5-1.4 2.7-.4-.8-.8-1.5-1.1-2.1z"/><path fill="#341923" d="M266.2 79.9c15.6.2 30.6 4.1 45.3 8.8 1.1.5 2.2.9 3.4 1.4 0 1.8-1.1 1.3-2.1.9h-1.9c-2 .9-3.9 0-5.8-.6-15-4.8-30.4-7.1-46-8-1.9-.1-4.1.3-5.3-1.8 4-2.2 8.2-.9 12.4-.7z"/><path fill="#341A24" d="M205.1 85.1c9.7-1.8 19.3-4.4 29.2-5.1 1.8-.1 3.6-.1 5.5-.1 4.2-.3 8.4-1.4 12.4.6-.9 1.9-2.7 1.8-4.3 1.9-12.6.5-25 2.3-37.3 5.2-1.8.4-3.6.5-5.4.1-2.1.5-4.2.9-6.4 1.4-1 .4-1.9.6-1.8-1.1 2.7-.9 5.4-1.9 8.1-2.9z"/><path fill="#392D36" d="M418 192l-7.2-15.9c.5-.5 1-.5 1.5-.2 3.1 4.5 4.7 9.7 6.8 14.7.4 1 0 1.4-1.1 1.4zM94.8 176.9l-6.9 15c-1.1.1-1.5-.4-1.1-1.4 1.4-5.4 4.1-10.2 7-14.9.7.2.8.8 1 1.3z"/><path fill="#362A33" d="M170.9 417.2c5 2.3 10 4.6 15 6.8.1 1.1-.4 1.5-1.4 1.1-5.4-1.5-10.2-4.1-14.9-7 .2-.7.8-.7 1.3-.9z"/><path fill="#41353D" d="M399.8 158.2l-10-13.2c.4-.5.9-.5 1.3-.1 3.9 3.3 7.1 7 8.9 11.8.5.6.4 1.1-.2 1.5z"/><path fill="#41343D" d="M403.8 353.7c1.1-4.1 3.9-7.3 6.1-10.7.8.4.5 1.4.9 2-1.5 3.9-3.8 7.4-6.7 10.4-.6-.6-.7-1.1-.3-1.7z"/><path fill="#3F323B" d="M412.3 175.8l-1.5.2c-2.3-3.9-4.6-7.8-6.9-11.8-.4-.6-.3-1.1.3-1.6 3.6 3.9 6.1 8.4 8.1 13.2z"/><path fill="#442125" d="M79.1 213c1.2-4.2 2.4-8.3 3.5-12.5.4-.3.9-.5 1.4-.8l1 1.2c-.8 4.9-1.2 10-4.3 14.2-1.6.1-.9-1.5-1.6-2.1z"/><path fill="#3C3039" d="M312.8 91l2.1-.9c4.8 1.1 8.9 3.8 13.4 5.6-.2.7-.8.8-1.3 1.1-4.7-1.9-9.4-3.8-14.2-5.8z"/><path fill="#41353D" d="M366.9 122.1l-12-8.9c-.4-.5-.4-1 .2-1.4 4.6 2.1 8.9 4.8 12 9 .3.5.3.9-.2 1.3z"/><path fill="#42363E" d="M337.7 415.8c3.5-2.7 7.1-5.2 11.3-6.9.6.4.6.8.1 1.2-2.9 2.9-6.3 5.2-10.1 6.7-.6-.2-1.2-.3-1.3-1z"/><path fill="#41343D" d="M102.1 163.3c-1.3 4-3.4 7.6-6.1 10.8-.6-.1-.7-.7-.9-1.1 1.9-4 3.7-8 6.7-11.4.6.5.7 1 .3 1.7z"/><path fill="#42363E" d="M168.1 102.2c-3.4 2.4-6.9 4.7-11 6-.6-.4-.6-.9-.2-1.4 3.5-2.3 7-4.5 11-6.1.5.5.5 1 .2 1.5z"/><path fill="#41343D" d="M96 343.8c2.8 2.8 3.8 6.7 6.1 9.9.4 1.3-.2 1.5-1.3 1.3l-5.7-10.1c.3-.4.3-1 .9-1.1z"/><path fill="#41353D" d="M389.8 372.9l8-10.2c.7.1.7.8 1 1.2-2.2 3.4-4.2 6.8-7.6 9.1-.5.4-1 .4-1.4-.1zm-281.7-10.2c2.7 3.1 5.2 6.3 7 10 .4.5.3 1-.2 1.4-3.3-2.9-5.4-6.7-8.1-10.1.2-.7.6-1.1 1.3-1.3zm41.2-248.6c-3.1 2.6-6.3 5.3-10.1 7-.5.4-1 .3-1.4-.2 2.9-3.3 6.7-5.4 10.1-8.1.7.2 1.2.6 1.4 1.3zm-10.1 282.8c3.8 1.7 6.9 4.3 10.1 7-.2.7-.7 1.1-1.3 1.3-3.4-2.6-7.2-4.8-10.1-8.1.3-.6.8-.6 1.3-.2z"/><path fill="#362A33" d="M168.1 102.2c-.1-.5-.1-1-.2-1.6 3-2.1 6.2-3.8 9.7-4.9 1.1-.4 1.4.1 1.4 1.1-3.7 1.9-7.3 3.7-10.9 5.4zM327 96.9l1.3-1.1c3.5 1.1 6.7 2.8 9.8 4.9.3.6.3 1.1-.2 1.6-3.7-1.8-7.3-3.6-10.9-5.4z"/><path fill="#41353D" d="M115 144.9c-1.3 4.1-4.4 7-6.9 10.3-.7-.2-1.1-.7-1.3-1.3 2.8-3 4-7.4 8.2-9zm241.7 258.9c3.5-2.3 5.7-6.4 10.3-6.9-2.1 3.7-5.7 5.7-9.1 7.9-.5-.2-1.1-.3-1.2-1z"/><path fill="#3F333C" d="M137.8 120.9l1.4.2c-2.3 3.3-4.5 6.8-9.2 6.9 2.2-2.9 5-5 7.8-7.1z"/><path fill="#4B4048" d="M82.1 309.7c1 3.3 3.2 6.2 2.6 9.9l-.5.3c-2.1-2.3-2.3-5.2-3.1-8 .6-.6.1-1.7 1-2.2z"/><path fill="#3F333C" d="M139.2 396.9l-1.4.2c-2.3-2.4-6.3-3.2-6.8-7.3 3.6 1.3 6.4 3.6 8.2 7.1zm-24.3-22.8c.1-.5.1-1 .2-1.4 3.3 1.9 5.8 4.4 6.9 8.1-3.8-.8-4.9-4.3-7.1-6.7zm7-237.1c-1.1 3.8-3.4 6.5-7 8 1.1-3.7 3.4-6.5 7-8zm27.4-22.9c-.5-.4-.9-.8-1.4-1.3 3-2 6-4 9-6.1.1.5.1 1 .2 1.4-2 2.9-5.2 4-7.8 6zm217.6 8l.1-1.3c3.5 1.4 6.4 3.5 7.9 7.1-3.7-.4-5.3-3.8-8-5.8zm31.9 241.8c-.3-.4-.6-.8-1-1.2l6-9 .3 1.6c-.8 3.5-3.1 6-5.3 8.6zm-7.6-219l-1.3.1c-2-2.6-5.4-4.3-5.9-8 3.7 1.4 5.7 4.4 7.2 7.9z"/><path fill="#261822" d="M424 205.9l-.9 1.1c-1.4-2.4-2.1-5.1-2.2-7.9-.4-1-.9-2 .9-2.1 1.1 2.9 2.6 5.6 2.2 8.9z"/><path fill="#3F333C" d="M366.9 397c1.5-3.6 4.3-5.8 7.9-7-1.4 3.7-4.2 5.9-7.9 7zm22.9-24.1l1.3.1c-1.5 3.5-3.5 6.4-7.2 7.9.5-3.7 4-5.3 5.9-8zm-33.1 30.9c.4.3.8.6 1.2 1-2.6 2.3-5.3 4.6-8.9 5.4l-.1-1.2c2.6-1.8 5.2-3.5 7.8-5.2zM106.8 153.9c.4.4.8.9 1.3 1.3-2 2.7-3.2 5.9-6 8l-.3-1.6c1.7-2.5 3.4-5.1 5-7.7z"/><path fill="#362A33" d="M327 421c2.7-1.4 5.3-2.8 8-4.1.7.1 1.2.5 1.4 1.2-2.4 1.9-5.1 3.1-8 4-1.2.5-1.5 0-1.4-1.1z"/><path fill="#43373F" d="M154 407l7.2 4.8c-.1.6-.7.7-1.2 1-2.9-.9-5.1-2.9-7.3-4.8.1-.6.8-.7 1.3-1z"/><path fill="#443840" d="M337.9 102.3c.1-.5.1-1 .2-1.6 2.6.8 4.9 2.2 7 3.9.3.7.2 1.2-.3 1.8-2.3-1.4-4.6-2.8-6.9-4.1z"/><path fill="#493D45" d="M86.8 190.5c.4.5.8 1 1.1 1.4-1.2 2.3-.6 5.6-3.8 6.7-.3-3 1.3-5.5 2.7-8.1z"/><path fill="#392D36" d="M411 341l4.1-8c1-.1 1.5.3 1.1 1.4-.9 2.9-2.1 5.6-4 7.9-.8-.2-1.1-.6-1.2-1.3zm-319-6.2l2.7 6.2c-.2.5-.2 1.2-1 1.3-1.9-2.4-3.1-5.1-4-8-.4-.8-.1-1.3.7-1.6 1.4.2 1.1 1.5 1.6 2.1z"/><path fill="#493D45" d="M192.9 90.9c-2 1.8-4.6 2.2-7 3-.5-.3-1.3-.4-1.4-1.2 2.4-1.8 5.2-2.2 8-2.6.5.2.6.4.4.8z"/><path fill="#3F333C" d="M184.5 92.7c.5.4 1 .8 1.4 1.2l-7 3-1.4-1.1c2.2-1.5 4.5-2.4 7-3.1z"/><path fill="#493D45" d="M84.2 319.9c.2 0 .4-.1.5-.3 2.5 1.4 2.2 4.2 3.3 6.4-.3.5-.4 1.3-1.2 1.4-1.3-2.4-2.8-4.6-2.6-7.5z"/><path fill="#42363E" d="M160 412.9l1.2-1c2.3 1.4 5.1 1.8 7.1 3.9-.1.7-.7.8-1.2 1-2.7-.9-4.9-2.3-7.1-3.9z"/><path fill="#3F333C" d="M86.7 327.4c.4-.5.8-1 1.2-1.4.7 1.3 1.4 2.7 2.2 4 .3 1 1.6 1.7.8 3l-1.1 1.4c-1.5-2.2-2.4-4.5-3.1-7zm329.4 7L415 333l3-7c1.2-.1 1.5.4 1.1 1.5-.5 2.4-1.5 4.8-3 6.9zM327 421l1.4 1.1c-2.1 1.5-4.4 2.4-6.9 3-1.1.4-1.6 0-1.5-1.2 2.3-.9 4.6-1.9 7-2.9z"/><path fill="#493D45" d="M320 424l1.5 1.2c-2.4 1.3-4.7 2.7-7.5 2.6-.4-.1-.5-.3-.3-.7 1.5-2.2 4.1-2.2 6.3-3.1z"/><path fill="#483C45" d="M419.2 327.5c-.4-.5-.8-1-1.1-1.5 1-2.4 1.9-4.8 2.9-7.1l.9 2.1c-.6 2.2-1.4 4.5-2.7 6.5z"/><path fill="#493D45" d="M421.8 197l-.9 2.1c-1.5-2.2-2.1-4.7-2.9-7.1.4-.5.8-1 1.1-1.4 1.5 1.9 2.2 4.1 2.7 6.4z"/><path fill="#473B44" d="M184.5 425.2c.5-.4.9-.8 1.4-1.1l7.2 2.9-2.1.9c-2.3-.7-4.5-1.3-6.5-2.7z"/><path fill="#4F434B" d="M313.6 427.1c.2.2.3.4.3.7-1.3 1.6-3.2 1.8-5 2.1-.7-1.1-2-.6-2.9-.9 2.3-1.5 5-1.6 7.6-1.9z"/><path fill="#3F333C" d="M154 407l-1.3 1.1c-1.6-1-3.2-2-4.7-3l1.3-1.3c1.5 1.1 3.1 2.2 4.7 3.2z"/><path fill="#3B2E37" d="M404.1 162.7l-.3 1.6-4-6c.1-.5.1-1 .2-1.6 1.9 1.6 4.1 3.1 4.1 6z"/><path fill="#3F333C" d="M108.1 362.7c-.4.4-.8.9-1.3 1.3-1-1.6-2-3.2-3-4.7-.5-1.2.2-1.3 1.1-1.3 1.1 1.5 2.1 3.1 3.2 4.7z"/><path fill="#3B2E37" d="M355 111.8c-.1.5-.1 1-.2 1.4-2-1.4-3.9-2.8-5.9-4.3-.1-.9.2-1.5 1.3-1.1 2.2.7 3.7 2.1 4.8 4z"/><path fill="#4F434B" d="M192.9 90.9c-.1-.3-.2-.5-.4-.7.8-2 2.9-1.6 4.4-2.1.2 1 1.2.7 1.8 1.1-1.7 1-3.6 1.9-5.8 1.7z"/><path fill="#4A3F47" d="M350.3 107.8l-1.3 1.1c-1.4-.9-2.8-1.7-4.1-2.6l.3-1.8c1.8.9 3.6 1.8 5.1 3.3z"/><path fill="#43373F" d="M104.9 358l-1.1 1.3c-1-1.4-2-2.8-3-4.3l1.3-1.3 2.8 4.3z"/><path fill="#261822" d="M411 341l1.2 1.3c-.4.9-.9 1.8-1.3 2.6l-.9-2c.2-.7-.1-1.7 1-1.9zm-74.7 77.1l-1.4-1.2c.5-1.5 1.9-.6 2.8-1.1l1.2 1c-.9.5-1.7.9-2.6 1.3z"/><path fill="#342730" d="M82.1 309.7c-.2.8-.1 1.7-1 2.2l-.9-3 .9-2.2.6.1c.2 1 .3 2 .4 2.9z"/><path fill="#261822" d="M167 416.8l1.2-1 2.7 1.4c-.4.3-.9.6-1.3 1-.8-.5-1.7-.9-2.6-1.4zm-73.2-74.5c.3-.4.6-.9 1-1.3l1.3 2.8-.9 1.1c-.5-.9-1-1.7-1.4-2.6zM95.1 173l.9 1.1-1.2 2.9-1-1.3 1.3-2.7z"/><path fill="#FE5434" d="M81.8 306.8h-.3l-.3-.1c-2.2-11.1-4.9-22-5.5-33.4l-.8-15.4c-.8-14.5.4-28.8 5.3-42.7 2.5-4.5 1.7-10.1 4.9-14.3 22 5.2 39.2 25.6 37.2 52.1-.7 9.9-.9 19.6-5.8 28.5-7.6 13.9-19.4 22-34.7 25.3z"/><path fill="#731630" d="M424.3 210.2c5.2 19.1 7.8 38.6 6.5 58.4-1.1 16.5-3.6 32.8-9.9 48.3-25-7.3-37.9-25.3-37.2-51.4.3-8.8.4-17.6 4.1-25.8 6.6-14.3 17.5-23.5 32.6-27.6 1.5-.4 3.2-.1 3.9-1.9z"/><path fill="#CB1E2C" d="M205.2 87.7c15.2-4.7 30.9-6.5 46.7-6.9.7-.5 1.4-.5 2.1 0 18.7.4 36.9 3.1 54.7 9.2l2.3 1c-7.1 24.8-25.3 37.9-51.1 37.2-9.2-.3-18.3-.4-26.8-4.4-15.4-7.3-24.4-19.6-27.9-36.1z"/><path fill="#FEFEFE" d="M90.9 333l-.8-3c2.4.9 3.7 2.3 1.9 4.9-.3-.7-.7-1.3-1.1-1.9z"/><path fill="#371A24" d="M254 80.8h-2.1c-3.9-1.8-8.1-.3-12.2-.9 8.8-1.4 17.6-1.4 26.5 0-4 .6-8.2-.9-12.2.9z"/><path fill="#371E24" d="M80.1 215.2c-2.9 14.1-5.2 28.2-5.3 42.7-1.8-4-.3-8.2-1-12.2.1-11.2 2.3-22 5.3-32.7.4.8.7 1.5 1 2.2z"/></svg><svg viewBox="0 0 510 510" width="510" height="510" x="2040"><path fill="#CB1E2C" d="M259.4 128c-5.8-.9-11.6-.5-17.4-1.8-22.5-5.3-38.8-27.1-36.7-49.4 2.4-24.9 21.1-43.5 45.1-44.6 9-.4 18-.2 26.8 1.7 24 5.1 40 27.2 37.5 51.5s-23.3 42.8-47.9 42.7c-2.4-.1-4.9-.1-7.4-.1z"/><path fill="#FE5434" d="M122 252.5c0 13.5-2.6 26.1-11.5 36.9-12.5 15-33.1 21-51.9 14.7-18.7-6.3-31.8-23.6-32.5-43.1-.3-8.8-.1-17.7 1.7-26.3 5.1-24 27.2-40 51.5-37.5s42.8 23.3 42.7 47.9v7.4z"/><path fill="#731630" d="M384 265.2c.9-5.6.5-11.3 1.8-16.9 5.3-22.8 27.2-39.1 49.7-36.9 25.5 2.6 44.1 22.1 44.4 46.8.1 8.3 0 16.7-1.7 24.9-5.1 24.3-27.5 40.5-51.8 37.8-24.4-2.8-42.6-23.4-42.4-48.1v-7.6z"/><path fill="#40152A" d="M246.5 390c7.3.7 14.6.6 21.7 3 22.3 7.5 35.5 29.9 31.7 53.7-3.5 21.7-23.4 38.8-45.9 39.2-8.5.1-17 0-25.4-1.7-24-5.1-40.1-27.2-37.5-51.5 2.6-24.4 23.3-42.8 47.9-42.7h7.5z"/></svg><svg viewBox="0 0 510 510" width="510" height="510" x="2040" y="510"><path fill="#CB1E2C" d="M259.4 33c8 .5 17.4.3 26.4 3.1 22.8 7 36.6 30.5 31.9 54.1-4.6 23.2-26.7 39.4-50.1 37.2-6.8-.6-13.6-.5-20.4-1.3-24.3-2.7-42.4-24.4-41.1-48.9 1.3-24.5 21.6-44.1 46.1-44.3 2 0 4 .1 7.2.1z"/><path fill="#FE5434" d="M27 252.7c.4-7.9.3-17.3 3-26.3 7-23.1 30.6-37.1 54.3-32.2 23.3 4.8 39.3 26.7 37 50.3-.7 6.8-.5 13.6-1.3 20.4-2.6 23.9-24.1 42-48.5 41-24.4-1.1-44.3-21.5-44.6-45.8 0-2 .1-4 .1-7.4z"/><path fill="#731630" d="M479 265.2c-.5 7.8-.3 17-2.9 25.9-6.8 23.2-30 37.2-54 32.7-23.3-4.4-39.8-26.5-37.4-50.4.8-8.6 0-17.3 2.1-25.8 5.8-22.6 27.8-38.2 50.1-35.3 24.6 3.2 42 22.4 42.1 46.6v6.3z"/><path fill="#40152A" d="M246.7 485c-7.6-.3-16.3-.3-24.7-2.6-23.9-6.4-38.3-29.7-33.9-54.2 4.2-23.5 26.4-39.9 50.7-37.6 8.6.8 17.3 0 25.8 2.2 22.3 5.8 37.7 27.6 35 49.9-3 24.5-22.3 42.1-46.4 42.3h-6.5z"/></svg><svg viewBox="0 0 510 510" width="510" height="510" x="2040" y="1020"><path fill="#CB1E2C" d="M259.1 34c9.2.4 19.4.7 29.3 3 22.8 5.2 37.2 26.6 34.6 50.8-2.4 21.7-22.2 39.6-44.6 39.2-12.1-.2-24.4-.1-36.2-2.8-22.3-5.2-37.5-26.9-34.8-48.7 3-24.3 21.9-41.4 45.9-41.5h5.8z"/><path fill="#FE5434" d="M121.1 236.6c-2 9.8-.1 22-3.1 33.7-5.5 21.9-27.1 37-48.7 34.3-24.1-3-41.3-21.8-41.4-45.4-.1-11.8.4-23.7 2.9-35.2 5.2-23.4 27-38.1 51.3-35 22.1 2.8 39.1 22.7 39 47.6z"/><path fill="#731630" d="M478 264.5c-.3 9.4-.7 19.8-3 29.9-5.2 22.8-26.7 37.2-50.8 34.5-21.7-2.4-39.6-22.2-39.2-44.6.2-11.8.2-23.7 2.6-35.3 4.8-22.6 26.3-38.2 48.5-35.8 24.3 2.6 41.9 21.8 42 45.9-.1 1.6-.1 3.1-.1 5.4z"/><path fill="#40152A" d="M246.9 484c-9.2-.4-19.4-.7-29.3-3-22.8-5.2-37.2-26.6-34.6-50.7 2.4-21.7 22.1-39.7 44.5-39.3 12.1.2 24.4.1 36.2 2.8 22.3 5.2 37.5 26.8 34.9 48.7-2.9 24.2-21.9 41.4-45.8 41.5h-5.9z"/></svg><svg viewBox="0 0 510 510" width="510" height="510" x="2040" y="1530"><path fill="#CB1E2C" d="M261.8 35.2c10.5.7 20.9 1.8 31.2 3.7 24.4 4.4 40.2 27.2 35.9 52-4.1 23.6-27.4 39.7-51.5 35.5-8.2-1.4-16.5-2.1-24.8-2.3-24.9-.6-43.9-19.7-44-44.2-.1-24.6 19.2-44.2 44.2-44.7h9z"/><path fill="#FE5434" d="M29.2 249.9c.7-10.3 1.8-20.6 3.7-30.7 4.5-24.8 27.6-40.7 52.4-36 23.5 4.4 39.2 27.5 35.1 51.4-1.4 8.2-2.1 16.5-2.3 24.8-.5 24.9-19.7 43.9-44.3 43.9-24.5 0-43.9-19.1-44.5-43.9-.2-3.2-.1-6.3-.1-9.5z"/><path fill="#731630" d="M476.7 268.1c-.7 10.5-1.9 20.9-3.7 31.2-4.4 24.2-27.8 40.1-52.3 35.5-23.4-4.4-39.3-27.6-35.1-51.3 1.4-8.2 2.1-16.5 2.3-24.8.6-25.1 19.9-44.3 44.6-44.1 24.8.1 44.2 19.8 44.3 45.1-.1 2.8-.1 5.6-.1 8.4z"/><path fill="#40152A" d="M243.8 482.7c-10.5-.7-20.9-1.9-31.2-3.7-24.2-4.4-40.1-27.8-35.5-52.3 4.4-23.4 27.6-39.3 51.2-35.2 8.2 1.4 16.5 2.1 24.8 2.3 25.2.6 44.3 19.9 44.2 44.5-.1 24.8-19.8 44.2-45 44.4h-8.5z"/></svg><svg viewBox="0 0 510 510" width="510" height="510" y="2040"><path fill="#CB1E2C" d="M262.1 37.2c15 .9 29.8 2.9 44.3 6.7 22.8 6 36.1 28.5 30.5 51.3-5.4 22.4-27.9 36.2-50.6 31.1-11.2-2.5-22.6-3.9-34.1-4.2-23.6-.6-42.1-19.4-41.9-42.6.2-23.6 19-42.2 42.7-42.4 3.2 0 6.1.1 9.1.1z"/><path fill="#FE5434" d="M31.2 256.2c.6-17.8 2.4-34.7 6.8-51.1 6-22.6 28.8-35.8 51.6-30.1 22.1 5.5 35.9 28 30.8 50.4-2.5 11.1-3.9 22.2-4.2 33.6-.5 24-19.1 42.7-42.4 42.6-24-.1-42.7-19.3-42.6-43.6v-1.8z"/><path fill="#731630" d="M474.8 267.8c-.9 15-2.8 29.8-6.6 44.4-6 23.1-28.5 36.5-51.6 30.8-22.3-5.5-36.1-27.9-30.9-50.7 2.5-11.2 3.8-22.6 4.1-34.1.6-23.6 19.5-42.1 42.7-41.7 23.4.3 41.9 18.8 42.3 42.4v8.9z"/><path fill="#40152A" d="M243.9 480.8c-15.2-.9-30.2-2.9-44.8-6.8-22.4-5.9-35.6-28.6-30.1-51.2 5.4-22.4 27.9-36.3 50.5-31.2 11.2 2.5 22.6 3.9 34.1 4.2 23.7.6 42.1 19.2 41.9 42.5-.1 23.8-19.1 42.5-43.1 42.5h-8.5z"/></svg><svg viewBox="0 0 510 510" width="510" height="510" x="510" y="2040"><path fill="#CB1E2C" d="M261.7 40.3c21.9 1.1 43.3 5.1 63.9 12.5 17.2 6.2 27.7 22.4 26.3 40.4-1.4 17.3-14.1 31.7-31.6 35.3-7.3 1.5-14.6.8-21.6-1.7-14.7-5.2-29.9-7.5-45.5-7.8-22.4-.4-39.3-17.2-39.4-39.1-.1-22.1 17-39.2 39.5-39.7l8.4.1z"/><path fill="#FE5434" d="M34.6 249.9c.8-21.8 4.8-43 12.2-63.5 6.2-17.3 22.4-27.7 40.4-26.3 17.3 1.4 31.8 14.2 35.3 31.7 1.3 6.6 1.1 13.3-1.2 19.7-5.6 16-8 32.5-8.4 49.5-.4 19.8-17 36.3-36.8 37.2-20.9 1-38.7-13.4-41.3-33.4-.6-5-.6-9.9-.2-14.9z"/><path fill="#731630" d="M471.6 267.9c-1.1 21.8-5.1 42.9-12.4 63.4-6.2 17.4-22.1 27.8-40.2 26.6-17.3-1.1-31.8-13.8-35.6-31.3-1.6-7.3-1-14.6 1.5-21.6 5.2-14.9 7.6-30.3 7.8-46 .4-22.4 17.4-39.3 39.3-39.3s38.9 16.9 39.5 39.2c.2 3 .1 6 .1 9z"/><path fill="#40152A" d="M244.4 477.6c-21.9-1.1-43.3-5-63.9-12.4-17.3-6.2-27.7-22.2-26.5-40.3 1.2-17.3 13.9-31.7 31.4-35.5 7.3-1.6 14.6-.9 21.6 1.6 14.9 5.2 30.3 7.5 46 7.8 22.3.4 39.2 17.5 39.1 39.4-.1 21.8-17 38.8-39.4 39.4-2.6.1-5.4 0-8.3 0z"/><path fill="#F05B4E" d="M293.2 249.4c-1.6-7.9-6.9-14.3-14.8-16.5-5.1-1.4-10.2-.4-15.3-.9-3.1-.4-4.3.6-4.2 4 .3 6.3.1 12.7.1 19 0 6.8-.1 13.6 0 20.5 0 1.5-.7 3.5 2.1 3.5 4.9 0 9.8.5 14.5-.1 9-1.2 15-6.6 17-15.4 1.1-4.6 1.6-9.2.6-14.1zm-9.1 18.7c-3.5 4.6-12.3 7.8-17.7 6-1.9-.6-1.4-2-1.4-3.2-.1-5.3 0-10.5 0-15.6v-15.4c0-1.6 0-2.7 2.3-2.9 11.9-1 20.3 4.2 19.8 17-.2 4.9.3 9.7-3 14.1zm-44.7-13.6c7.5 2.7 10.4 7 9.5 14.4-.6 5.2-6.4 10.3-12.8 11-5.6.6-10.7-.9-15.2-4.4-1.8-1.4-1.8-2.9-.5-4.5 1.5-1.9 2.4-.5 3.6.5 3.2 2.7 6.9 3.8 11 3.4 5.1-.5 7.9-3.5 7.9-8.3.1-5.5-3.2-8.8-9.7-9.6-1-.1-2-.1-3 0-1.7.1-2.3-.6-2.3-2.3 0-1.8.4-2.9 2.5-2.7 1.7.2 3.2-.4 4.8-1 5.5-1.9 7.3-5.2 5.7-10.1-1-3.1-6.8-5.1-10.8-3.5-2.4 1-4.8 2.2-6.3 4.1-4.4-3.2-2.1-5 1.1-7 5.7-3.5 13.8-3.4 18.5.4 5.9 4.8 5.5 12.9-.9 17.2-1 .8-2 1.6-3.1 2.4z"/></svg><svg viewBox="0 0 510 510" width="510" height="510" x="1020" y="2040"><path fill="#CB1E2C" d="M260.8 54.7c51.9 2.5 98 21.9 136.2 59.6 10.5 10.3 10.7 25.8.9 35.8-9.8 10.1-25.2 10.2-35.8-.1-24.2-23.6-52.8-38.4-86.3-43.6-7.8-1.2-15.6-1.5-23.4-1.7-12.8-.4-23.1-9.9-24.4-22.2-1.4-12.5 6.5-23.8 18.8-27.1 4.1-1 8.3-.4 14-.7z"/><path fill="#FE5434" d="M128.2 106.9c9 .4 17 5.1 21.2 14.9 4.5 10.2 2.7 19.7-5.1 27.6-16.4 16.8-29 36-36.8 58.2-5.8 16.5-8.6 33.4-8.8 50.9-.2 19.7-20.3 31.8-37.1 22.3-8.5-4.8-12.9-12.3-12.8-22.2.2-48.8 15.9-92 46.7-129.8 4.3-5.3 9.1-10.2 13.9-15.1 4.7-4.6 10.5-6.8 18.8-6.8z"/><path fill="#731630" d="M457.2 267c-2.4 51.7-21.9 97.9-59.7 136.2-10.3 10.4-25.8 10.5-35.8.7-10-9.9-10.1-25.2.2-35.8 23.6-24.2 38.3-52.8 43.5-86.2 1.2-7.7 1.5-15.5 1.7-23.4.4-13 10.1-23.4 22.6-24.5 12.6-1.1 23.8 6.9 26.8 19.1 1 4 .5 8 .7 13.9z"/><path fill="#40152A" d="M245.3 463.2c-52.1-2.5-98-21.9-136.1-59.2-10.7-10.5-11.2-26-1.3-36.1 9.9-10.2 25.3-10.2 36.1.3 24.2 23.6 52.9 38.2 86.3 43.3 7.6 1.2 15.2 1.4 22.9 1.6 13.1.4 23.4 10 24.6 22.4 1.2 12.5-6.7 23.8-19 26.9-4 1.1-8.2.5-13.5.8z"/><path fill="#F05B4E" d="M293.2 249c-1.4-7.1-7.2-14.2-14.1-16.1-5.6-1.5-11.2-.6-16.8-1-2.7-.2-3.5.8-3.4 3.4.2 6.7.1 13.3.1 20 0 3.2-.2 6.3.1 9.4.2 4.6-2.1 10.8.9 13.4 3.1 2.7 9.2 1 14 .7 8.9-.6 15.3-4.7 18-13.5 1.6-5.2 2.3-10.6 1.2-16.3zm-6.1 5.7c-.2 3.6.4 7.3-1.2 10.7-3 6.6-12 10.5-19.2 8.6-2-.5-1.6-1.8-1.6-3-.2-5.2-.1-10.3-.1-15.5 0-5.1.1-10.3 0-15.4-.1-2.3.6-3 3.1-3.2 12.5-1 19.9 5.7 19 17.8zm-63.4-13.1c-4.5-3.4-1.7-5.2 1.3-7.1 5.6-3.5 13.8-3.3 18.5.6 5.9 4.9 5.4 12.7-1.1 17.2-1.1.7-2 1.6-3 2.4 7.4 2.5 10.2 6.4 9.6 14-.4 5.5-6.3 10.7-12.9 11.4-5.3.6-10.1-.8-14.4-3.9-1.6-1.1-3.2-2.4-1.4-4.8 1.9-2.5 2.9-.3 4.3.7 3.5 2.5 7.4 3.7 11.6 2.8 5.1-1.1 7.2-4.2 6.8-9.3-.3-4.7-3.8-7.8-9.8-8.5-1-.1-2-.1-3 0-1.8.1-2.2-.9-2.2-2.5 0-1.5.2-2.7 2.1-2.5 1.7.1 3.2-.3 4.8-.9 5.7-2 7.8-5.4 6-10.4-1.2-3.3-6.8-4.7-11.3-3-2.4.8-4.3 2.3-5.9 3.8z"/></svg><svg viewBox="0 0 510 510" width="510" height="510" x="1530" y="2040"><path fill="#CB1E2C" d="M258.3 69.1c77.2 1.6 148.2 53.2 173.6 126.3 2.4 7 0 13.1-6.1 15.2-5.9 2-11.3-1.1-13.9-7.9-21.3-55.5-60.4-91.3-117.7-107.1-13.6-3.7-27.5-4.7-41.5-5.3-8.7-.4-13.2-9.3-8.7-16.3 2-3.2 5.1-4.7 8.8-4.9 1.8-.1 3.7 0 5.5 0z"/><path fill="#FE5434" d="M63.1 253.7c1.4-76.9 52.6-147.5 125.7-173.5 7.4-2.6 13.5-.3 15.7 5.9 2.1 6-1.1 11.4-8.3 14.1-55.2 21.3-90.9 60.4-106.7 117.5-3.5 12.7-4.7 25.8-5.2 39-.3 8.6-4.7 13.4-11.2 12.9-6.7-.4-10.2-5.3-10.1-14 .1-.6.1-1.2.1-1.9z"/><path fill="#731630" d="M442.9 264c-1.5 77.5-53.2 148.7-126.5 174-6.8 2.3-12.6.1-14.8-5.9-2.3-6 .8-11.5 7.9-14.3 55.4-21.3 91.2-60.5 107-117.8 3.7-13.6 4.7-27.5 5.2-41.5.2-6.1 5.1-10.4 10.8-10.2 5.7.2 10.1 4.6 10.4 10.7v5z"/><path fill="#40152A" d="M247.6 448.8C170.4 447.2 99.9 396 74.1 322.7c-2.5-7.1-.2-13 5.9-15.2 6-2.2 11.4.9 14.2 8.1 21.3 55.4 60.5 91.1 117.7 106.9 13.4 3.7 27.2 4.7 41 5.2 8 .3 12.6 7.1 10.1 14.1-1.6 4.4-4.9 6.6-9.4 7.1-2 .1-4-.1-6-.1z"/><path fill="#F05B4E" d="M293.2 249.1c-1.4-7.1-7.1-14.3-14-16.2-5.4-1.5-10.9-.6-16.3-1-3.1-.3-4.1.6-4 3.8.3 6.5.1 13 .1 19.5 0 3.2-.2 6.4.1 9.5.2 4.6-2.1 10.8.9 13.4 3.1 2.8 9.3 1 14 .7 8.6-.6 15.1-4.3 18-13.4 1.6-5.2 2.3-10.6 1.2-16.3zM268.1 274c-2.3-.2-3.1-.8-3.1-3.2.1-10.3.1-20.6 0-30.9 0-2.4.8-2.9 3.1-3.1 11.8-.8 20 5 18.9 18.9 1 12.4-6.7 19.4-18.9 18.3zm-44.4-32.4c-4.1-3.4-2-5.1 1.1-7 6-3.6 14.1-3.5 18.9.6 5.7 4.9 5.2 12.7-1.1 16.8-1.1.7-1.7 2.1-4 2 9 3.5 12.5 9.8 10 16.7-2.4 6.6-11.8 11.1-19.3 8.9-3.1-.9-6.2-2-8.7-4.3-1.6-1.5-1.3-2.8-.3-4.2 1.3-1.9 2.4-.7 3.6.3 3.4 3 7.6 4.1 11.9 3.4 5-.8 7.3-4 7.1-9.1-.2-4.8-3.5-7.9-9.6-8.7-1.1-.2-2.3-.1-3.5-.1-1.6 0-2-.8-1.9-2.2.1-1.3-.3-2.8 1.8-2.8 1.8 0 3.5-.3 5.3-.9 5.5-2 7.4-5 5.8-10.1-1-3.1-6.7-5.2-10.7-3.6-2.3 1-4.7 2.2-6.4 4.3z"/></svg><svg viewBox="0 0 510 510" width="510" height="510" x="2040" y="2040"><path fill="#CB1E2C" d="M258.1 72.4c83 2.1 155.3 59.7 175.7 139.8 1.8 6.9.3 10.8-4.6 12.3-4.8 1.4-8.2-1.4-10.1-8.3-12.5-46.7-39.8-82.2-81.5-106.4-24.9-14.5-52.1-21.5-80.9-22.4-1.5 0-3 0-4.5-.2-4.1-.4-6.4-2.8-6.7-6.8-.3-4.3 1.9-7 6-7.9 2.2-.5 4.4-.1 6.6-.1z"/><path fill="#FE5434" d="M66.2 254.2c1.9-82.9 59.9-155.8 140.2-176.1 6.9-1.7 10.8-.2 12.1 4.8 1.3 4.8-1.6 8.1-8.5 10-49.1 13.3-85.5 42.5-109.4 87.3-12.6 23.6-18.5 49-19.3 75.7-.1 1.8.1 3.7-.4 5.5-1.1 3.6-3.9 5.4-7.6 5.1-4-.3-6.3-2.9-6.9-6.7-.4-1.9-.2-3.8-.2-5.6z"/><path fill="#731630" d="M439.6 264.1c-2.1 83-59.8 155.3-139.9 175.7-6.9 1.8-10.8.3-12.2-4.7-1.3-4.8 1.5-8.2 8.4-10.1 49.1-13.3 85.6-42.5 109.5-87.2 12.4-23.3 18.4-48.4 19.3-74.7.1-1.7 0-3.3.2-5 .4-4.1 2.9-6.4 6.8-6.6 4.3-.3 7 2 7.9 6.1.3 2.2 0 4.4 0 6.5z"/><path fill="#40152A" d="M247.9 445.6C164.8 443.5 92.7 386 72.1 305.8c-1.8-7.1-.1-11.3 5-12.5 4.6-1.1 7.9 1.8 9.7 8.4 12.4 46.5 39.6 81.9 81 106.2 25 14.7 52.3 21.8 81.3 22.7 1.5 0 3 0 4.5.2 4.1.4 6.4 2.7 6.7 6.7.4 4.3-1.9 7.1-6 8-2 .4-4.2.1-6.4.1z"/><path fill="#F05B4E" d="M293.1 248.8c-1.2-6.7-7.1-14.1-13.7-15.9-5.6-1.5-11.2-.6-16.8-1-2.8-.2-3.8.7-3.7 3.6.2 6.7.1 13.3.1 20s.1 13.3 0 20c-.1 2.4.4 3.7 3.2 3.5 4-.2 8 .3 12-.1 8.6-.8 15.1-4.8 17.8-13.7 1.6-5.4 2.1-10.7 1.1-16.4zm-6 6.3c-.5 11.2-2.9 15.8-11 18.4-2.8.9-5.6.2-8.3.5-2.3.3-2.8-.8-2.8-2.9v-15.5c0-5 .1-10 0-14.9-.1-2.6.4-3.6 3.4-3.8 12.2-.8 19.3 5.9 18.7 18.2zm-63.4-13.5c-3.8-3.1-2.4-4.9.9-6.9 6.4-3.9 14.6-3.6 19.6 1.1 4.9 4.7 4.3 12.4-1.5 16.2-1.1.7-1.7 2.1-4.6 2.1 5.8 1.8 9.5 4.5 10.6 9.1 1.1 4.5-.1 8.8-3.1 12.5-5 6-20.8 5.3-25.6-.9-1.3-1.8-.1-2.7.6-3.8 1.2-1.7 2.1-.4 3.2.4 4.6 3.6 9.4 5 15 2.2 2.9-1.4 4-3.6 4.1-6.7.1-3.4-.8-6.3-4-7.9-2.5-1.3-5.1-2.3-8-2.1-1.8.1-3.2 0-3.2-2.5 0-2.6 1.5-2.6 3.2-2.4 1.4.1 2.5-.5 3.8-.9 5.7-1.9 7.8-5.5 5.9-10.4-1.3-3.3-6.9-4.7-11.3-2.9-2 .9-3.9 2-5.6 3.8z"/></svg><svg viewBox="0 0 510 510" width="510" height="510" x="2550"><path fill="#CB1E2C" d="M258.1 74.1c87.1 2.7 160.3 65.3 176.5 150.4 1 5.2-.3 8.1-4.1 8.7-4.9.7-6.2-2.5-7-6.5-10.3-50.3-37.1-89.2-80.7-116.2-26.3-16.3-55.2-24.3-86.1-25.1-1.3 0-2.7-.1-4-.2-3.4-.2-5.3-2.3-5.3-5.5 0-3.3 2-5.2 5.3-5.6 2-.1 4 0 5.4 0z"/><path fill="#FE5434" d="M68 253.7c2.3-86.3 65.1-160 150.5-176.4 5.2-1 8.1.3 8.7 4 .7 4.9-2.4 6.2-6.4 7-51 10.5-90.3 37.8-117.2 82.4-15.9 26.2-23.4 54.9-24.2 85.4 0 1.2-.1 2.3-.2 3.5-.3 2.9-2.2 4.6-4.9 4.8-3 .3-5.2-1.3-5.9-4.3-.5-2-.3-4.2-.4-6.4z"/><path fill="#731630" d="M437.8 265.1c-2.5 85.8-65.5 159.6-150.5 175.5-5.1 1-8.1-.5-8.6-4.2-.6-4.9 2.6-6.1 6.6-6.9 50.1-10.2 88.9-36.9 115.9-80.3 16.3-26.1 24.4-54.8 25.3-85.6l.2-5c.2-3.2 2.1-5 5.1-5.2 3.3-.2 5.4 1.7 5.9 4.9.3 2 .1 4 .1 6.8z"/><path fill="#40152A" d="M247.3 443.8c-86.6-2.8-159.4-64.9-176-150.3-.7-3.8-1-7.7 4-8.7 4.8-1 6.2 2.2 7.1 6.3 10.2 50.3 37 89.2 80.6 116.3 26 16.1 54.6 24.2 85.1 25.1l5 .2c3.4.2 5.3 2.1 5.4 5.4.1 3.5-2.2 5.5-5.6 5.7-1.9.1-3.7 0-5.6 0z"/><path fill="#F05B4E" d="M293.1 248.8c-1.2-6.7-7.1-14.1-13.7-15.9-5.6-1.5-11.2-.6-16.8-1-2.8-.2-3.8.7-3.7 3.6.2 6.7.1 13.3.1 20v20c-.1 2.4.4 3.7 3.2 3.5 4-.2 8 .3 12-.1 8.6-.8 15.1-4.8 17.8-13.7 1.6-5.4 2.1-10.7 1.1-16.4zm-9 19.3c-3.5 4.6-12.3 7.7-17.7 5.9-1.9-.6-1.3-2.1-1.4-3.2-.1-5.2 0-10.4 0-15.5v-15.4c0-1.6.1-2.7 2.3-2.9 11.9-1 20.3 4.3 19.8 17-.2 4.9.3 9.7-3 14.1zm-60.4-26.5c-4-3.4-2.1-5.1 1.1-7 6.1-3.8 14.4-3.5 19.2.9 5.3 4.8 4.7 12.4-1.4 16.5-1.1.7-2.1 1.6-3.1 2.4 8 3.2 11.6 9.4 9.1 16.3-2.4 6.6-11.8 11.1-19.3 8.9-3.1-.9-6.2-2-8.7-4.3-1.6-1.5-1.3-2.7-.3-4.2 1.3-1.9 2.4-.8 3.6.3 3.4 3 7.6 4.1 11.9 3.4 5-.8 7.3-4 7.1-9.1-.2-4.9-3.5-7.9-9.6-8.8-1.1-.2-2.3-.1-3.5-.1-1.6 0-2-.8-1.9-2.2.1-1.3-.3-2.8 1.8-2.8 1.8 0 3.5-.2 5.3-.9 5.5-2 7.4-5 5.8-10.1-1-3.1-6.7-5.3-10.7-3.7-2.3 1.2-4.7 2.4-6.4 4.5z"/></svg><svg viewBox="0 0 510 510" width="510" height="510" x="2550" y="510"><path fill="#CB1E2C" d="M261.4 75.6c86.4 3.5 159.3 68.8 172.7 154.8l.7 3.9c.3 2.7-.8 4.7-3.5 5.2-2.8.5-4.4-1.3-4.9-3.9l-2.4-13.3c-14.7-71.2-74.2-126.8-146.2-136.7-7.8-1.1-15.5-1.8-23.4-1.8-3 0-5.5-.7-5.5-4.2-.1-3.7 2.6-4.2 5.5-4.2 2.4.2 4.7.2 7 .2z"/><path fill="#FE5434" d="M69.7 250.5C72.8 167 135.9 93.9 218.1 78.9c2.8-.5 5.6-.9 8.3-1.5 3.2-.6 6.5-.7 7.1 3.2.7 4-2.7 4.8-5.8 5.2-18.5 2.5-36.1 7.8-52.6 16.4C120 131 88 176.4 79.2 237.9c-.9 6.4-.9 12.9-1.2 19.4-.1 3-.7 5.5-4.2 5.5-3.7.1-4.1-2.6-4.1-5.5v-6.8z"/><path fill="#731630" d="M436.3 267.4c-3.6 86.3-69.2 159.7-154.6 172.6-3.6.5-8.5 2.7-9.2-3-.6-5.2 4.5-4.7 7.9-5.2 69.5-9.9 129.5-66.6 143.6-135.8 2.4-11.6 3.9-23.3 3.9-35.2 0-3.1.4-6 4.2-6 4 0 4.2 3 4.2 6v6.6z"/><path fill="#40152A" d="M244.5 442.3C158.1 438.7 84.7 373 71.8 287.7c-.5-3.6-2.7-8.5 3-9.3 5.2-.7 4.7 4.4 5.2 7.9 9.9 69.5 66.6 129.5 135.8 143.6 11.6 2.4 23.3 3.9 35.2 3.9 3.1 0 6 .3 6 4.2 0 4-3 4.2-6 4.2-2.1.1-4.3.1-6.5.1z"/><path fill="#F05B4E" d="M293.2 249.4c-1.6-7.9-6.9-14.3-14.8-16.5-5.1-1.4-10.2-.4-15.3-.9-3.1-.4-4.3.6-4.2 4 .3 6.3.1 12.7.1 19 0 6.8-.1 13.6 0 20.5 0 1.5-.7 3.5 2.1 3.5 4.9 0 9.8.5 14.5-.1 9-1.2 15-6.6 17-15.4 1.1-4.6 1.6-9.2.6-14.1zm-6.1 5.4c-.2 3.4.3 6.9-1.1 10.2-2.9 6.9-12.1 11.1-19.4 9-2-.6-1.5-1.9-1.6-3.1-.1-5.1 0-10.3 0-15.4s.1-10.3 0-15.4c-.1-2.4.8-3 3.1-3.1 12.5-1 19.8 5.8 19 17.8zm-63.4-13.2c-3.9-3.3-2.1-5.1 1.1-7 6.2-3.8 14.4-3.5 19.2.9 5.3 4.8 4.7 12.5-1.3 16.5-1.1.7-1.7 2.1-3.3 2.3 3.7 1.1 6.5 3.3 8.4 6.3 2 3.1 1.8 6.8.8 10.1-2 6.7-11.7 11.2-19.1 9-3.1-.9-6.2-2-8.7-4.3-1.6-1.5-1.4-2.7-.4-4.2 1.3-1.9 2.4-.8 3.6.3 3.2 2.9 7.2 4 11.4 3.5 5.1-.6 7.6-3.7 7.6-8.6-.1-5.2-3.2-8.3-9.5-9.3-1-.1-2-.1-3 0-2 .2-2.5-.8-2.5-2.7 0-1.7.6-2.5 2.3-2.3 1.7.1 3.2-.3 4.8-.9 5.5-1.9 7.7-5.8 5.7-10.5-1.3-3.1-6.9-4.6-10.9-3-2.4.8-4.5 2-6.2 3.9z"/></svg><svg viewBox="0 0 510 510" width="510" height="510" x="2550" y="1020"><path fill="#FE5434" d="M70.8 250.2C73.6 168 136.9 94.6 217.9 80c5.1-.9 10.2-1.5 15.3-2.3 2.2-.3 4.6-.6 5 2.5.4 3.3-2.1 3.5-4.6 3.8-69.6 9.9-118 47.2-144.9 112-7.9 19.1-11.3 39.2-11.7 59.9 0 1.2.1 2.3-.1 3.5-.3 1.7-1.4 2.6-3.1 2.6-1.8 0-2.8-1.1-2.9-2.8-.2-3-.1-6-.1-9z"/><path fill="#CB1E2C" d="M261.5 76.7c82.8 3.1 155.8 66.1 170.5 147.5.9 4.9 1.5 9.9 2.2 14.8.4 2.4.6 5-2.8 5.2-2.9.2-3.2-2.2-3.5-4.4-5.2-43.9-23.9-81.1-56.6-110.9-32.5-29.7-71.1-44.7-115.1-45.9h-1.5c-2.3 0-4.6-.1-4.7-3.1-.1-3.1 2.3-3.2 4.5-3.2h7z"/><path fill="#731630" d="M435.2 267.7c-3.1 82.8-66 155.5-147.7 170.3-4.7.9-9.5 1.5-14.3 2.1-2.3.3-5 1-5.5-2.4-.4-3.3 2.1-3.5 4.6-3.8 68.5-9.6 116.6-46.2 144-109.7 8.5-19.7 12.2-40.7 12.6-62.2 0-1.2-.1-2.4.1-3.5.3-1.7 1.4-2.6 3.2-2.6 1.8 0 2.8 1.1 2.9 2.8.2 3 .1 6 .1 9z"/><path fill="#40152A" d="M244.6 441.2c-83.1-3.1-156-66-170.7-147.6-.9-4.9-1.5-9.9-2.2-14.8-.3-2.2-.6-4.6 2.4-5.1 3.3-.5 3.6 2 3.9 4.5 7.3 56.8 35.1 100.7 83.6 131.1 26.9 16.9 56.7 25 88.5 25.6 1.5 0 3 .1 4.4.6s1.8 1.9 1.5 3.4c-.3 1.5-1.4 2.3-2.8 2.3-2.9.1-5.7 0-8.6 0z"/><path fill="#F05B4E" d="M293.2 248.8c-1.3-6.7-7.2-14.1-13.8-15.9-5.6-1.5-11.2-.6-16.8-1-2.8-.2-3.8.7-3.7 3.6.2 6.7.1 13.3.1 20s.1 13.3 0 20c0 2.4.5 3.7 3.3 3.5 4-.2 8 .3 12-.1 8.6-.8 15.1-4.8 17.8-13.7 1.6-5.4 2.1-10.7 1.1-16.4zm-6.1 6.1c-.3 3.7.3 7.6-1.6 11-3.6 6.4-11.2 9.5-18.6 8-2.4-.5-1.8-2-1.8-3.4-.2-5-.1-10.1-.1-15.3 0-5.1.1-10.3 0-15.4 0-2.2.7-2.7 2.9-2.9 12.3-1 20.1 5.2 19.2 18zm-63.4-13.3c-3.9-3.1-2.3-5 .9-6.9 6.4-3.9 14.6-3.6 19.6 1.1 4.9 4.7 4.2 12.3-1.5 16.2-1.1.7-2.1 1.5-3.4 2.5 4.6 1.4 8.3 4.1 9.4 8.7 1.1 4.5-.1 8.8-3.2 12.4-5 6-20.9 5.3-25.6-1-1.3-1.8-.1-2.7.6-3.8 1.2-1.7 2.1-.4 3.2.5 4.6 3.5 9.3 4.7 15.1 2.3 5.3-2.2 5.3-11.8.5-14.4-2.1-1.2-4.5-1.9-6.9-2.3-1.8-.3-4.6 1.4-4.6-2.5 0-3.6 2.6-1.9 4.2-2.5 3.4-1.2 8-1 8.7-5.8.4-2.4 1.1-5.4-1.6-7.4-2.9-2.1-6.1-2.4-9.3-1.2-2.2.9-4.4 2.1-6.1 4.1z"/></svg><svg viewBox="0 0 510 510" width="510" height="510" x="2550" y="1530"><path fill="#CB1E2C" d="M262.8 77.7C345.7 83 412 139.4 430.4 220.3c1.7 7.6 2.9 15.4 3.5 23.2.1 1.7.7 4.1-1.9 4.4-2.9.3-2.8-2.2-2.9-4.2-3.2-36.4-16.2-68.8-39.5-96.8-34.4-41.2-78.9-62.6-132.5-64.7-1.2 0-2.3 0-3.5-.1-1.5 0-2.6-.6-2.7-2.3 0-1.7 1.1-2.4 2.6-2.4 1.7-.1 3.3 0 5 0 1.4.1 2.8.2 4.3.3z"/><path fill="#FE5434" d="M71.3 249.3C75.4 168.8 134 98.9 214.2 81.5c7.7-1.7 15.4-2.8 23.2-3.5 1.7-.1 4.1-.7 4.4 1.9.3 2.9-2.2 2.8-4.2 3-36.9 3.2-69.8 16.6-98 40.5-37.4 31.7-58.5 72.2-62.8 121.3-.4 4.5-.5 9-.8 13.5-.1 1.4-.3 2.7-2 2.9-2 .2-2.7-1.1-2.7-2.8-.1-3 0-6 0-9z"/><path fill="#731630" d="M434.3 268.6c-5.5 83.2-61.6 149.3-142.4 167.8-7.6 1.7-15.4 2.9-23.2 3.5-1.8.2-4.5.9-4.6-2.2-.1-2.8 2.6-2.5 4.5-2.7 71.8-8.6 121.6-46.4 149.5-113 8-19.2 11.2-39.6 11.8-60.4.1-1.9-1-5 2.5-4.8 2.9.2 2.2 2.8 2.2 4.7 0 2.5-.2 4.8-.3 7.1z"/><path fill="#40152A" d="M243.6 440.3C163.8 436.6 95.4 379.8 76.5 302c-2.2-9.1-3.7-18.3-4.5-27.6-.1-1.7-.7-4.1 1.9-4.4 2.9-.3 2.8 2.2 3 4.2 8 78.3 61 139.2 137 157.1 11.9 2.8 23.9 4 36.1 4.5 1.9.1 5.1-1.1 5.1 2.3-.1 3.5-3.3 2.4-5.4 2.4-2.1.1-4.1-.1-6.1-.2z"/><path fill="#F05B4E" d="M293.1 249c-1.2-7.1-7.1-14.2-14.1-16.1-5.4-1.5-10.9-.5-16.3-1-3.2-.3-3.9 1.1-3.8 4 .2 6.5.1 13 .1 19.5 0 6.8 0 13.6-.1 20.5 0 1.8.1 3.2 2.6 3.1 4.5-.1 9.1.5 13.5-.1 8.4-1.1 14.6-5.3 17-14 1.5-5.3 2.1-10.4 1.1-15.9zm-6 5.8c-.2 3.4.3 6.9-1.1 10.2-2.9 6.9-12.1 11.1-19.4 9.1-2-.6-1.5-1.9-1.6-3.1-.1-5.4 0-10.7 0-16 0-5 .1-10 0-14.9-.1-2.4.8-3 3.1-3.1 12.5-1 19.8 5.8 19 17.8zm-63.4-13.2c-4.4-3.3-1.9-5.2 1.3-7.1 5.7-3.5 13.8-3.3 18.5.5 5.9 4.8 5.4 12.8-1 17.2-1.1.7-2.1 1.6-3.1 2.4 7.5 2.5 10.5 7 9.6 14.4-.6 5.2-6.5 10.2-12.9 10.9-5.6.6-10.7-1-15.2-4.5-1.9-1.5-1.6-2.9-.4-4.5 1.5-1.9 2.5-.3 3.6.6 3.2 2.7 6.9 3.7 11 3.3 4.9-.5 7.7-3.4 7.8-7.9.2-5.6-2.8-8.9-9.3-10-1.1-.2-2.3-.1-3.5-.1-1.8.1-2.3-.8-2.2-2.4 0-1.4.1-2.7 2.1-2.6 1.9.2 3.5-.4 5.3-1 5.3-1.9 7.3-5.3 5.6-10.2-1.1-3.1-6.8-4.9-10.8-3.3-2.5 1.1-4.8 2.5-6.4 4.3z"/></svg></svg>