<svg xmlns="http://www.w3.org/2000/svg" width="596" height="667" viewBox="0 0 596 667">
  <defs>
    <style>
      .cls-1 {
        fill-rule: evenodd;
      }
    </style>
  </defs>
  <path class="cls-1" d="M105.624,282.119H253.962V385.1H105.624V489.4L0,600V76.159c1.269-2.165.34-6.017,0.993-8.609C2.328,62.26,3.31,56.786,5.3,51.987c8.328-20.1,22.994-36.374,42.713-45.033C64.872-.45,83.458,0,107.942,0H506.269L408.922,102.649H141.716c-14.646,0-24.508-.189-30.794,8.278-7.727,10.408-5.3,32.736-5.3,50.662v120.53Z"/>
  <path id="Rectangle_1_copy" data-name="Rectangle 1 copy" class="cls-1" d="M490.376,384.881H342.038V281.9H490.376V177.6L596,67V590.841c-1.269,2.165-.34,6.018-0.993,8.609-1.335,5.29-2.317,10.764-4.3,15.563-8.328,20.105-22.994,36.374-42.713,45.033-16.861,7.4-35.447,6.954-59.931,6.954H89.731l97.347-102.649H454.284c14.646,0,24.508.189,30.794-8.278,7.727-10.408,5.3-32.736,5.3-50.662V384.881Z"/>
</svg>
